<svg width="20" height="19" viewBox="0 0 20 19" fill="none" xmlns="http://www.w3.org/2000/svg">
<path d="M8.83163 0.00292101C8.17138 0.0196586 7.50798 0.10804 6.85566 0.271696C2.0071 1.48829 -0.942636 6.42898 0.273952 11.2775C1.49052 16.1261 6.42396 19.0758 11.2725 17.8593C16.1211 16.6427 19.0708 11.7092 17.8542 6.86067C17.8406 6.76363 17.8067 6.67055 17.7546 6.5875C17.7026 6.50445 17.6336 6.43329 17.5523 6.37867C17.4709 6.32405 17.3789 6.2872 17.2824 6.27051C17.1858 6.25382 17.0868 6.25766 16.9918 6.28179C16.8968 6.30592 16.808 6.3498 16.7311 6.41057C16.6542 6.47133 16.591 6.54762 16.5456 6.63445C16.5001 6.72128 16.4735 6.81671 16.4674 6.91452C16.4614 7.01233 16.476 7.11033 16.5103 7.20212C17.5434 11.3195 15.0485 15.4749 10.9311 16.5081C6.81368 17.5412 2.65103 15.0535 1.6179 10.9361C0.584789 6.81868 3.07967 2.65602 7.1971 1.62292C9.40572 1.06872 11.743 1.52327 13.5827 2.86515C13.655 2.93066 13.7404 2.98024 13.8331 3.0107C13.9259 3.04115 14.024 3.05181 14.1211 3.04196C14.2182 3.03211 14.3122 3.00197 14.3969 2.95352C14.4817 2.90506 14.5553 2.83937 14.613 2.76067C14.6708 2.68196 14.7114 2.59201 14.7322 2.49663C14.753 2.40125 14.7535 2.30257 14.7338 2.20697C14.714 2.11137 14.6744 2.02098 14.6175 1.94164C14.5607 1.86231 14.4878 1.79581 14.4036 1.74642C12.7735 0.557447 10.8124 -0.0475707 8.83163 0.00292101ZM19.2636 0.453325C19.0829 0.46428 18.9136 0.545027 18.7914 0.678513C16.3183 3.26597 12.3189 7.66937 9.71791 10.413L6.2745 7.37647C6.20581 7.31542 6.12577 7.26848 6.03894 7.23836C5.95212 7.20824 5.86021 7.19551 5.76847 7.2009C5.67673 7.2063 5.58694 7.22972 5.50425 7.26982C5.42156 7.30991 5.34757 7.3659 5.28651 7.43459C5.22546 7.50328 5.17853 7.58331 5.14841 7.67013C5.11828 7.75696 5.10556 7.84887 5.11095 7.94061C5.11635 8.03235 5.13976 8.12214 5.17986 8.20483C5.21995 8.28753 5.27594 8.36152 5.34463 8.42257L9.29656 11.9096C9.4311 12.0295 9.60685 12.0928 9.78697 12.086C9.9671 12.0792 10.1376 12.003 10.2628 11.8732C12.861 9.15489 17.2262 4.33121 19.7939 1.64472C19.8943 1.54504 19.962 1.41718 19.9881 1.27811C20.0141 1.13904 19.9973 0.995334 19.9397 0.866073C19.8822 0.736811 19.7867 0.628097 19.6659 0.554377C19.5452 0.480657 19.4048 0.445421 19.2636 0.453325Z" fill="white"/>
</svg>
