<svg width="16" height="16" viewBox="0 0 16 16" fill="none" xmlns="http://www.w3.org/2000/svg">
<path d="M8.60665 3.77927C8.80828 3.93715 8.88889 4.17717 8.88889 4.45322C8.88889 4.72547 8.80575 4.96105 8.60916 5.12498C8.43976 5.27354 8.23619 5.3509 8.00676 5.3509C7.76356 5.3509 7.5487 5.27617 7.37511 5.12302C7.18822 4.95815 7.11111 4.7231 7.11111 4.45322C7.11111 4.17961 7.18575 3.94008 7.37765 3.78119C7.5508 3.62955 7.76474 3.55554 8.00676 3.55554C8.23506 3.55554 8.43776 3.63215 8.60665 3.77927Z" fill="#054375"/>
<path d="M8.7808 6.12269V12.4444H7.2057V6.12269H8.7808Z" fill="#054375"/>
<path fill-rule="evenodd" clip-rule="evenodd" d="M16 8C16 12.4183 12.4183 16 8 16C3.58172 16 0 12.4183 0 8C0 3.58172 3.58172 0 8 0C12.4183 0 16 3.58172 16 8ZM14.7556 8C14.7556 11.731 11.731 14.7556 8 14.7556C4.26901 14.7556 1.24444 11.731 1.24444 8C1.24444 4.26901 4.26901 1.24444 8 1.24444C11.731 1.24444 14.7556 4.26901 14.7556 8Z" fill="#054375"/>
</svg>
