<svg width="70" height="66" viewBox="0 0 70 66" fill="none" xmlns="http://www.w3.org/2000/svg">
<path d="M69.9937 31.2079L69.9916 31.2691C69.8292 35.3658 66.36 38.5583 62.2363 38.3976C58.3156 38.2465 55.2209 35.0846 55.0676 31.2524L55.0634 31.1926C54.9101 27.0924 58.128 23.6458 62.2524 23.4927C66.3775 23.341 69.8418 26.5405 69.9951 30.6413C70.0021 30.8258 70.0021 31.0269 69.9937 31.2079Z" fill="#8CD133"/>
<path d="M63.1128 51.3488L63.0792 51.3954C60.8616 54.3896 56.6287 55.0285 53.6166 52.8257C50.7662 50.7391 50.0522 46.8241 51.8694 43.8765L51.9009 43.8299C53.8658 40.6659 58.0329 39.6859 61.2144 41.6347C64.3966 43.5877 65.3843 47.7337 63.4194 50.8971C63.3277 51.0467 63.2192 51.2068 63.1128 51.3488Z" fill="#8CD133"/>
<path d="M46.4224 63.9881L46.3692 64.0069C43.2199 65.1337 39.7465 63.5065 38.6139 60.3759C37.5408 57.4088 38.9758 54.1446 41.8045 52.8535L41.857 52.8278C44.9041 51.4497 48.5 52.7839 49.8888 55.8157C51.279 58.8461 49.9343 62.4207 46.8865 63.8037C46.7374 63.8698 46.5736 63.9331 46.4224 63.9881Z" fill="#8CD133"/>
<path d="M25.8888 65.1797L25.8307 65.1651C22.9607 64.4545 21.2121 61.5612 21.9275 58.709C22.6065 55.9988 25.2833 54.2971 28.0084 54.7425L28.0665 54.7516C30.9869 55.2381 32.9581 57.9824 32.4716 60.8861C31.9837 63.787 29.2215 65.7497 26.3018 65.2646C26.166 65.2431 26.0204 65.211 25.8888 65.1797Z" fill="#8CD133"/>
<path d="M8.54057 54.9736L8.50207 54.9298C6.78287 53.0304 6.93897 50.1058 8.85207 48.3936C10.6623 46.7747 13.4133 46.8429 15.1577 48.4681L15.1997 48.5078C17.0701 50.2617 17.1555 53.1918 15.3908 55.0536C13.6261 56.9134 10.6791 57.0003 8.80727 55.2457C8.71697 55.1601 8.62247 55.0627 8.54057 54.9736Z" fill="#8CD133"/>
<path d="M0.0468322 37.2492L0.0391322 37.1901C-0.265368 35.0422 1.24033 33.0572 3.40123 32.7545C5.44803 32.467 7.35343 33.8131 7.80563 35.78L7.81893 35.835C8.29773 37.9536 6.96073 40.0548 4.82923 40.5351C2.70053 41.0111 0.584432 39.6804 0.104932 37.5624C0.0818322 37.4601 0.0615322 37.3502 0.0468322 37.2492Z" fill="#8CD133"/>
<path d="M2.89735 18.2254L2.92465 18.1739C3.70515 16.5683 5.64835 15.8973 7.26255 16.6748C8.79415 17.4118 9.47385 19.1992 8.87395 20.7491L8.85295 20.8027C8.20195 22.4662 6.32105 23.2902 4.64805 22.6457C2.97505 21.9999 2.14485 20.1283 2.79375 18.4649C2.82525 18.3848 2.86165 18.302 2.89735 18.2254Z" fill="#8CD133"/>
<path d="M15.6631 4.34234L15.7114 4.3145C16.9231 3.60946 18.482 4.01592 19.1904 5.22139C19.8624 6.36283 19.5236 7.81886 18.4547 8.56776L18.4078 8.59978C17.2577 9.40226 15.6694 9.12526 14.8637 7.98034C14.0566 6.83611 14.3359 5.25689 15.4867 4.4551C15.5427 4.41682 15.6043 4.37714 15.6631 4.34234Z" fill="#8CD133"/>
<path d="M33.6574 0.00347991L33.7176 0.00695999C34.7326 0.066816 35.5047 0.934728 35.4445 1.94254C35.3864 2.90093 34.5863 3.64356 33.6364 3.66166L33.5762 3.66235C32.5591 3.67906 31.7212 2.87239 31.7044 1.8618C31.6876 0.849816 32.4989 0.016704 33.516 0C33.5622 0.000696 33.6119 0.00139191 33.6574 0.00347991Z" fill="#8CD133"/>
<path d="M50.6448 6.25075L50.6889 6.28486C51.1873 6.66557 51.2804 7.37479 50.8975 7.86965C50.5342 8.33806 49.872 8.44385 49.3778 8.12995L49.333 8.09863C48.8031 7.75829 48.6519 7.05811 48.9942 6.53263C49.3358 6.00785 50.0414 5.85682 50.5692 6.19855C50.5923 6.21386 50.6196 6.23335 50.6448 6.25075Z" fill="#8CD133"/>
<path d="M60.9889 20.5376L61.0064 20.5919C61.0806 20.8167 60.9588 21.061 60.7341 21.1362C60.5192 21.2086 60.2847 21.1007 60.1979 20.8974L60.1762 20.8473C60.081 20.6274 60.1832 20.3741 60.4044 20.2787C60.6235 20.184 60.8804 20.2857 60.9735 20.5056C60.9805 20.516 60.9847 20.5265 60.9889 20.5376Z" fill="#8CD133"/>
</svg>
