<svg width="32" height="32" viewBox="0 0 32 32" fill="none" xmlns="http://www.w3.org/2000/svg">
<rect opacity="0.1" width="32" height="32" rx="9" fill="#05BDFB"/>
<path d="M16.3956 9C21.1567 9 25.5658 11.6096 27.9003 15.8109C28.0332 16.0491 28.0332 16.3403 27.9003 16.5785C25.5651 20.7798 21.1567 23.3894 16.3956 23.3894C11.6345 23.3894 7.22623 20.7798 4.891 16.5785C4.75804 16.3403 4.75804 16.0491 4.891 15.8109C7.22547 11.6096 11.6345 9 16.3956 9ZM16.3956 21.8237C20.4519 21.8237 24.218 19.6778 26.3296 16.1947C24.218 12.7116 20.4519 10.5657 16.3956 10.5657C12.3394 10.5657 8.57327 12.7116 6.46167 16.1947C8.57327 19.6778 12.3394 21.8237 16.3956 21.8237Z" fill="#05BDFB"/>
<path d="M16.3955 11.5393C18.9397 11.5393 21.0093 13.6276 21.0093 16.1947C21.0093 18.7618 18.9397 20.8501 16.3955 20.8501C13.8513 20.8501 11.7817 18.7618 11.7817 16.1947C11.7817 13.6276 13.8513 11.5393 16.3955 11.5393ZM16.3955 19.2983C18.0919 19.2983 19.4714 17.906 19.4714 16.1947C19.4714 14.4834 18.0919 13.0911 16.3955 13.0911C14.6991 13.0911 13.3196 14.4834 13.3196 16.1947C13.3196 17.906 14.6991 19.2983 16.3955 19.2983Z" fill="#05BDFB"/>
</svg>
