<svg width="32" height="32" viewBox="0 0 32 32" fill="none" xmlns="http://www.w3.org/2000/svg">
<rect opacity="0.1" width="32" height="32" rx="9" fill="#05BDFB"/>
<path d="M4.60497 11.2603L9.41916 11.0099C10.109 10.9893 10.7664 11.0012 11.57 11.0421C12.2056 11.0746 12.9258 11.1113 13.4768 11.2836L13.4781 11.2841C13.6446 11.3269 15.1474 11.7036 16.6347 11.7416L16.7645 11.7458L16.894 11.7416C18.3814 11.7036 19.8842 11.3269 20.0506 11.2841L20.052 11.2836C20.603 11.1113 21.3231 11.0746 21.9587 11.0421C22.7621 11.0012 23.4197 10.9893 24.1096 11.0099L28.924 11.2603C29.1674 11.2603 29.5293 11.4069 29.5293 11.8105V13.4126V13.453L29.5067 13.4866C29.3899 13.6583 29.2309 13.7885 29.0905 13.9034C28.8719 14.0825 28.7376 14.2008 28.7339 14.3636C28.7562 14.7099 28.6767 15.0437 28.5999 15.3665L28.5695 15.4946C28.468 15.9318 28.3725 16.2921 28.2688 16.6289C28.0175 17.4451 27.7156 18.0524 27.3191 18.5398C26.5112 19.533 25.2079 20.0296 23.3336 20.0578L23.1828 20.0589C21.3888 20.0589 20.0583 19.5768 19.2286 18.6264C18.7284 18.0532 18.4468 17.2951 18.2202 16.686C18.1221 16.4218 18.0287 16.1561 17.9354 15.8901L17.8482 15.6423C17.8234 15.572 17.7995 15.4999 17.7753 15.427C17.6862 15.1579 17.5937 14.8794 17.4362 14.6478C17.3224 14.4407 17.069 14.3078 16.7653 14.2891C16.4994 14.3078 16.2079 14.4407 16.0943 14.6478C15.9366 14.8794 15.8444 15.1579 15.7553 15.427C15.7311 15.4999 15.7071 15.572 15.6824 15.6423L15.5952 15.8901C15.5018 16.1558 15.4085 16.4218 15.3104 16.686C15.0838 17.2951 14.8019 18.0532 14.302 18.6264C13.4722 19.5771 12.1418 20.0589 10.3478 20.0589L10.197 20.0578C8.32298 20.0296 7.01937 19.5332 6.21147 18.5398C5.81496 18.0524 5.5134 17.4451 5.26182 16.6289C5.15811 16.2921 5.06237 15.9318 4.96105 15.4946L4.93073 15.3665C4.85388 15.0435 4.77437 14.7099 4.79671 14.3636C4.79298 14.2011 4.65868 14.0825 4.44009 13.9034C4.29967 13.7885 4.14065 13.6583 4.0239 13.4866L3.9997 13.453V13.4126V11.8105C3.9997 11.4069 4.36164 11.2603 4.60497 11.2603ZM19.9592 17.5896C20.561 18.3472 21.4468 18.8462 22.4533 18.9949C22.6733 19.0274 22.9014 19.0438 23.1315 19.0438C24.2157 19.0438 25.0409 18.8206 25.6546 18.3615C26.3192 17.8643 26.775 17.0407 27.0093 15.9139C27.2128 14.937 27.3223 13.9327 26.753 13.2063C26.1222 12.4017 24.9425 12.2696 24.1098 12.2401C23.8798 12.2319 23.6447 12.2268 23.4075 12.2268C22.1938 12.2268 21.2234 12.3692 20.4413 12.6619C19.9251 12.855 19.0523 13.3384 19.005 14.4061C18.9521 15.5992 19.2996 16.7594 19.9592 17.5896ZM6.51969 15.9141C6.75397 17.0412 7.20978 17.8646 7.87435 18.3617C8.48812 18.8208 9.31331 19.044 10.3975 19.044C10.6276 19.044 10.8557 19.0276 11.0757 18.9952C12.0825 18.8464 12.9683 18.3475 13.5698 17.5899C14.2294 16.7597 14.5772 15.5992 14.524 14.4063C14.4767 13.3387 13.6039 12.8553 13.0877 12.6622C12.3056 12.3695 11.3352 12.2271 10.1215 12.2271C9.88427 12.2271 9.64945 12.2324 9.41916 12.2403C8.58652 12.2699 7.40684 12.402 6.77605 13.2066C6.20668 13.933 6.31625 14.937 6.51969 15.9141Z" fill="#05BDFB"/>
</svg>
