<svg width="32" height="32" viewBox="0 0 32 32" fill="none" xmlns="http://www.w3.org/2000/svg">
<rect opacity="0.1" width="32" height="32" rx="9" fill="#05BDFB"/>
<g clip-path="url(#clip0_644:5696)">
<path d="M25.1663 21.8333C25.1663 22.2754 24.9907 22.6993 24.6782 23.0118C24.3656 23.3244 23.9417 23.5 23.4997 23.5H8.49967C8.05765 23.5 7.63372 23.3244 7.32116 23.0118C7.0086 22.6993 6.83301 22.2754 6.83301 21.8333V12.6667C6.83301 12.2246 7.0086 11.8007 7.32116 11.4882C7.63372 11.1756 8.05765 11 8.49967 11H11.833L13.4997 8.5H18.4997L20.1663 11H23.4997C23.9417 11 24.3656 11.1756 24.6782 11.4882C24.9907 11.8007 25.1663 12.2246 25.1663 12.6667V21.8333Z" stroke="#05BDFB" stroke-width="2" stroke-linecap="round" stroke-linejoin="round"/>
<path d="M16.0003 20.1667C17.8413 20.1667 19.3337 18.6743 19.3337 16.8333C19.3337 14.9924 17.8413 13.5 16.0003 13.5C14.1594 13.5 12.667 14.9924 12.667 16.8333C12.667 18.6743 14.1594 20.1667 16.0003 20.1667Z" stroke="#05BDFB" stroke-width="2" stroke-linecap="round" stroke-linejoin="round"/>
</g>
<defs>
<clipPath id="clip0_644:5696">
<rect width="20" height="20" fill="white" transform="translate(6 6)"/>
</clipPath>
</defs>
</svg>
