<svg width="145" height="100" viewBox="0 0 145 100" fill="none" xmlns="http://www.w3.org/2000/svg">
<path d="M18.7734 93.0728L113.245 17.4774L2.17188 31.3804L2.35462 32.8404L2.56094 34.4887L10.3783 96.9428C10.4785 97.7439 10.946 98.415 11.5952 98.8171L18.4447 93.3362L18.7734 93.0728Z" fill="white"/>
<path d="M113.246 17.4773L111.049 19.2351L108.569 21.2197L18.7743 93.0729L17.5777 94.0298L11.5958 98.8173C12.1015 99.1296 12.7167 99.2793 13.3554 99.1994L142.005 83.0964C143.464 82.9138 144.512 81.5999 144.333 80.1759L136.516 17.7216L136.31 16.0733L136.127 14.6133L113.246 17.4773Z" fill="#F1E8E8"/>
<path d="M131.645 0.332098L64.773 8.70241L2.9952 16.4351C1.53659 16.6177 0.488623 17.9323 0.666831 19.356L1.75255 28.0301L2.17194 31.3806L113.245 17.4777L133.809 1.02243C133.25 0.506372 132.466 0.229289 131.645 0.332098Z" fill="#20B99C"/>
<path d="M61.9143 40.4925L60.5577 40.6623L59.8513 35.0189L61.2079 34.8491L61.9143 40.4925ZM62.8601 40.3742L62.1537 34.7307L63.9715 34.5032C64.4702 34.4407 64.9328 34.4983 65.3592 34.6759C65.7853 34.8509 66.1353 35.1312 66.4093 35.5168C66.6855 35.8996 66.8569 36.3466 66.9236 36.8579L66.9561 37.1176C67.0208 37.6344 66.969 38.1119 66.8008 38.5503C66.6348 38.9857 66.3674 39.3446 65.9986 39.627C65.632 39.9065 65.2047 40.0781 64.7167 40.1418L62.8601 40.3742ZM63.6456 35.6108L64.0896 39.1574L64.5624 39.0982C64.9526 39.0493 65.2351 38.8736 65.4098 38.5709C65.5841 38.2656 65.637 37.8391 65.5685 37.2913L65.5379 37.0471C65.4697 36.5018 65.3136 36.1041 65.0697 35.8538C64.8257 35.6035 64.5035 35.5034 64.103 35.5536L63.6456 35.6108ZM74.2954 37.002C74.3265 37.397 74.2641 37.7578 74.1081 38.0844C73.9518 38.4084 73.7083 38.6751 73.3776 38.8845C73.0494 39.0935 72.6606 39.2262 72.211 39.2825C71.4693 39.3753 70.8551 39.2068 70.3683 38.7769C69.8814 38.3471 69.5829 37.6916 69.4726 36.8105L69.4376 36.5314C69.3684 35.9784 69.4035 35.4832 69.543 35.0459C69.6847 34.6056 69.9224 34.2504 70.256 33.9803C70.5893 33.7076 70.9937 33.5415 71.4692 33.482C72.1539 33.3963 72.727 33.5083 73.1883 33.818C73.6493 34.1251 73.9478 34.5916 74.0839 35.2176L72.7273 35.3874C72.6739 35.045 72.5565 34.8091 72.3749 34.6796C72.1934 34.5501 71.9359 34.5062 71.6026 34.5479C71.2641 34.5903 71.0319 34.748 70.9059 35.0209C70.78 35.2939 70.7479 35.7086 70.8097 36.2652L70.8597 36.6644C70.9351 37.2665 71.0638 37.6873 71.2461 37.927C71.4309 38.1663 71.708 38.2628 72.0775 38.2166C72.3902 38.1774 72.62 38.0739 72.7669 37.9059C72.9139 37.7379 72.9725 37.493 72.9427 37.1713L74.2954 37.002ZM78.2515 37.3768L76.3872 37.6102L76.1935 38.7052L74.74 38.8872L76.1034 32.9846L77.3825 32.8245L80.1742 38.207L78.7129 38.3899L78.2515 37.3768ZM76.5813 36.519L77.7945 36.3672L76.9409 34.486L76.5813 36.519ZM82.4365 35.9003L81.7 35.9925L81.9494 37.9848L80.5889 38.1551L79.8825 32.5116L82.1035 32.2336C82.7727 32.1498 83.3146 32.2329 83.7291 32.4828C84.1435 32.7328 84.3847 33.1291 84.4526 33.6717C84.5018 34.0645 84.4624 34.4001 84.3346 34.6786C84.2093 34.9567 83.9874 35.197 83.669 35.3996L85.1321 37.5273L85.1394 37.5855L83.682 37.7679L82.4365 35.9003ZM81.5686 34.9421L82.429 34.8344C82.6874 34.8021 82.8728 34.7106 82.9852 34.5601C83.0998 34.4066 83.142 34.2085 83.1116 33.9656C83.0812 33.7227 82.9915 33.541 82.8426 33.4205C82.6933 33.2975 82.4908 33.252 82.235 33.284L81.3745 33.3917L81.5686 34.9421ZM85.7673 37.5069L85.0609 31.8634L86.8787 31.6359C87.3774 31.5735 87.84 31.631 88.2664 31.8086C88.6925 31.9836 89.0425 32.2639 89.3165 32.6496C89.5927 33.0323 89.7641 33.4793 89.8308 33.9906L89.8633 34.2503C89.9279 34.7671 89.8762 35.2447 89.708 35.683C89.542 36.1185 89.2746 36.4774 88.9058 36.7597C88.5392 37.0392 88.1119 37.2108 87.6239 37.2745L85.7673 37.5069ZM86.5528 32.7435L86.9967 36.2901L87.4696 36.2309C87.8598 36.182 88.1422 36.0063 88.3169 35.7036C88.4913 35.3983 88.5442 34.9718 88.4756 34.424L88.4451 34.1798C88.3768 33.6346 88.2208 33.2368 87.9768 32.9865C87.7329 32.7362 87.4107 32.6361 87.0102 32.6863L86.5528 32.7435Z" fill="#013047"/>
<path d="M64.6656 62.5516L63.5726 62.6884L63.4261 63.374L62.9164 63.4378L63.6292 60.4827L64.0691 60.4276L65.4901 63.1157L64.9785 63.1797L64.6656 62.5516ZM63.6607 62.2758L64.4785 62.1735L63.9231 61.0541L63.6607 62.2758ZM65.5449 62.0282C65.5045 61.7052 65.547 61.4367 65.6725 61.2229C65.7978 61.0077 65.9864 60.8844 66.2383 60.8529C66.4605 60.8251 66.6498 60.8801 66.8062 61.018L66.6718 59.9443L67.1427 59.8854L67.5153 62.8622L67.089 62.9155L67.0385 62.7014C66.9191 62.8896 66.7418 62.9984 66.5066 63.0278C66.2611 63.0585 66.0498 62.9846 65.8726 62.806C65.6967 62.6272 65.5875 62.368 65.5449 62.0282ZM66.021 62.0099C66.0476 62.2231 66.1092 62.3847 66.2056 62.4946C66.3032 62.6032 66.4276 62.648 66.5787 62.629C66.7712 62.6049 66.9013 62.5014 66.969 62.3184L66.8569 61.423C66.7493 61.2659 66.5992 61.1994 66.4067 61.2235C66.2543 61.2426 66.1443 61.318 66.0768 61.4498C66.0092 61.5803 65.9906 61.767 66.021 62.0099ZM68.8959 60.9966C68.8326 60.994 68.768 60.9968 68.7021 61.0051C68.4863 61.0321 68.3513 61.133 68.2971 61.3077L68.4766 62.7418L68.0056 62.8008L67.7432 60.7039L68.1928 60.6476L68.2338 60.8806C68.3247 60.6842 68.4709 60.5734 68.6724 60.5482C68.7396 60.5398 68.7963 60.5419 68.8425 60.5545L68.8959 60.9966ZM70.2915 62.554C69.9931 62.5914 69.7391 62.5281 69.5296 62.364C69.3212 62.1985 69.1975 61.9594 69.1583 61.6467L69.1511 61.5886C69.1249 61.3793 69.1416 61.1876 69.2011 61.0135C69.2618 60.8379 69.3594 60.6951 69.4939 60.5851C69.6284 60.4751 69.7855 60.4089 69.9651 60.3864C70.2506 60.3507 70.4823 60.4142 70.6601 60.5769C70.8393 60.7395 70.9497 60.9875 70.9914 61.3208L71.0152 61.5108L69.645 61.6823C69.6809 61.8536 69.7556 61.9834 69.869 62.0715C69.9836 62.1595 70.1178 62.1939 70.2716 62.1747C70.4874 62.1477 70.6522 62.0385 70.766 61.8471L71.0502 62.0575C70.9819 62.1934 70.8817 62.305 70.7496 62.3924C70.6186 62.4783 70.4659 62.5322 70.2915 62.554ZM70.0105 60.7645C69.8813 60.7807 69.7823 60.839 69.7135 60.9395C69.646 61.0398 69.6114 61.1721 69.6096 61.3363L70.5069 61.224L70.5025 61.1891C70.4725 61.0328 70.4156 60.9192 70.3319 60.8483C70.2481 60.7761 70.1409 60.7482 70.0105 60.7645ZM72.5991 61.6471C72.5886 61.5632 72.5457 61.5036 72.4704 61.4684C72.3965 61.433 72.2773 61.4086 72.1128 61.395C71.9484 61.3815 71.8094 61.3556 71.6957 61.3173C71.4463 61.2331 71.3081 61.0831 71.2811 60.8673C71.2585 60.6864 71.3158 60.5257 71.453 60.3852C71.5903 60.2446 71.7765 60.1597 72.0116 60.1302C72.2623 60.0989 72.4722 60.1356 72.6415 60.2404C72.8121 60.345 72.9097 60.4961 72.9345 60.6938L72.4635 60.7528C72.4522 60.6623 72.4092 60.5916 72.3346 60.5406C72.2598 60.4882 72.1669 60.469 72.0558 60.4829C71.9524 60.4959 71.8708 60.5304 71.8109 60.5864C71.7522 60.6423 71.728 60.7103 71.738 60.7904C71.747 60.8628 71.7844 60.9152 71.8502 60.9476C71.9159 60.9801 72.0437 61.0054 72.2337 61.0236C72.4234 61.0406 72.5742 61.0709 72.686 61.1146C72.7989 61.1569 72.8855 61.2143 72.9457 61.2868C73.0072 61.3592 73.0451 61.4516 73.0591 61.564C73.0827 61.7526 73.0237 61.9155 72.8821 62.0526C72.7403 62.1885 72.5428 62.2722 72.2896 62.3039C72.1178 62.3255 71.9608 62.3136 71.8187 62.2684C71.6765 62.2232 71.5612 62.151 71.4727 62.0519C71.3842 61.9527 71.3321 61.8405 71.3164 61.7152L71.7737 61.6579C71.7941 61.7682 71.8468 61.8489 71.932 61.8999C72.0169 61.9497 72.1234 61.9665 72.2513 61.9505C72.3753 61.935 72.4667 61.8999 72.5255 61.8453C72.5841 61.7894 72.6086 61.7234 72.5991 61.6471ZM74.6495 61.3905C74.639 61.3065 74.5961 61.2469 74.5208 61.2117C74.4469 61.1764 74.3277 61.1519 74.1633 61.1384C73.9988 61.1248 73.8598 61.0989 73.7461 61.0607C73.4967 60.9764 73.3585 60.8264 73.3315 60.6106C73.3089 60.4298 73.3662 60.2691 73.5034 60.1285C73.6407 59.988 73.8269 59.903 74.062 59.8736C74.3127 59.8422 74.5226 59.8789 74.6919 59.9837C74.8625 60.0883 74.9601 60.2395 74.9849 60.4372L74.5139 60.4961C74.5026 60.4057 74.4596 60.3349 74.385 60.2839C74.3102 60.2316 74.2173 60.2124 74.1062 60.2263C74.0028 60.2392 73.9212 60.2737 73.8613 60.3298C73.8027 60.3857 73.7784 60.4537 73.7884 60.5338C73.7974 60.6061 73.8348 60.6585 73.9006 60.691C73.9663 60.7234 74.0941 60.7488 74.2841 60.767C74.4738 60.7839 74.6246 60.8142 74.7364 60.858C74.8493 60.9003 74.9359 60.9577 74.9961 61.0302C75.0577 61.1025 75.0955 61.1949 75.1095 61.3073C75.1331 61.496 75.0741 61.6588 74.9325 61.796C74.7907 61.9318 74.5932 62.0156 74.34 62.0473C74.1682 62.0688 74.0112 62.057 73.8691 62.0118C73.7269 61.9666 73.6116 61.8944 73.5231 61.7952C73.4346 61.6961 73.3825 61.5839 73.3668 61.4585L73.8241 61.4013C73.8445 61.5116 73.8973 61.5923 73.9824 61.6433C74.0673 61.693 74.1738 61.7099 74.3017 61.6939C74.4257 61.6783 74.5171 61.6433 74.5759 61.5887C74.6345 61.5328 74.659 61.4667 74.6495 61.3905ZM75.8176 61.3191C75.9055 61.3081 75.9765 61.3248 76.0306 61.3692C76.0845 61.4123 76.1162 61.4713 76.1256 61.5463C76.1348 61.6199 76.1186 61.6843 76.0769 61.7393C76.0351 61.7931 75.9703 61.8255 75.8824 61.8365C75.7984 61.847 75.7289 61.8315 75.6738 61.7898C75.6187 61.7481 75.5865 61.6898 75.5771 61.6149C75.5678 61.54 75.5839 61.475 75.6256 61.4199C75.6671 61.3635 75.7311 61.3299 75.8176 61.3191ZM75.6117 59.6737C75.6996 59.6627 75.7705 59.6794 75.8246 59.7238C75.8786 59.7669 75.9103 59.826 75.9196 59.9009C75.9289 59.9745 75.9126 60.0389 75.871 60.094C75.8292 60.1478 75.7643 60.1802 75.6765 60.1912C75.5925 60.2017 75.523 60.1861 75.4679 60.1444C75.4128 60.1028 75.3806 60.0445 75.3712 59.9695C75.3618 59.8946 75.3779 59.8296 75.4196 59.7745C75.4611 59.7181 75.5251 59.6845 75.6117 59.6737ZM78.8837 61.4392L78.4147 61.4979L78.1311 59.2324L77.4688 59.5554L77.4191 59.1581L78.4692 58.6153L78.5292 58.6078L78.8837 61.4392ZM81.7616 61.079L79.8643 61.3165L79.8238 60.9928L80.6354 59.85C80.7521 59.6818 80.8326 59.5438 80.8768 59.4359C80.9222 59.3266 80.9385 59.2209 80.9257 59.1188C80.9089 58.9844 80.8572 58.8807 80.7706 58.8075C80.6853 58.7342 80.5787 58.7056 80.4508 58.7216C80.2984 58.7406 80.186 58.802 80.1136 58.9055C80.0413 59.009 80.0152 59.1415 80.0355 59.303L79.5645 59.362C79.543 59.1902 79.5625 59.0309 79.6228 58.8843C79.6843 58.7361 79.7827 58.6149 79.9178 58.5206C80.0543 58.4261 80.2175 58.3669 80.4074 58.3432C80.6813 58.3089 80.9057 58.351 81.0807 58.4695C81.2567 58.5866 81.3599 58.7666 81.3903 59.0095C81.408 59.1503 81.3864 59.3032 81.3257 59.4683C81.2662 59.6319 81.1582 59.8232 81.0019 60.0422L80.4044 60.867L81.7145 60.703L81.7616 61.079ZM82.4612 59.34L82.748 59.304C82.8925 59.2846 83.0022 59.2329 83.077 59.1487C83.153 59.0644 83.1823 58.9525 83.1648 58.8129C83.148 58.6786 83.0995 58.579 83.0192 58.5143C82.94 58.448 82.8281 58.424 82.6834 58.4421C82.5568 58.458 82.4574 58.5078 82.3852 58.5916C82.3129 58.6742 82.2841 58.7742 82.2988 58.8918L81.8278 58.9508C81.8097 58.806 81.8314 58.6695 81.8927 58.5411C81.9553 58.4125 82.051 58.3067 82.1797 58.2237C82.3096 58.1392 82.4598 58.0863 82.6303 58.0649C82.912 58.0297 83.1418 58.0731 83.3198 58.1952C83.4989 58.3158 83.6042 58.502 83.6358 58.754C83.6516 58.8806 83.6259 59.0052 83.5586 59.1278C83.4924 59.2489 83.3989 59.3459 83.2781 59.4188C83.4397 59.4524 83.5677 59.521 83.6621 59.6246C83.7577 59.7282 83.8154 59.8587 83.8351 60.0163C83.8668 60.2696 83.8048 60.482 83.6492 60.6537C83.4948 60.8253 83.2761 60.9288 82.9932 60.9642C82.7219 60.9981 82.4906 60.9536 82.2993 60.8306C82.1081 60.7075 81.9974 60.5259 81.9674 60.2856L82.4383 60.2266C82.4538 60.3506 82.5078 60.4462 82.6002 60.5134C82.6939 60.5804 82.8111 60.6051 82.9519 60.5875C83.0979 60.5692 83.2081 60.5161 83.2824 60.428C83.3566 60.34 83.3846 60.2223 83.3661 60.075C83.3475 59.9265 83.2893 59.8176 83.1914 59.7485C83.0935 59.6794 82.958 59.6557 82.7849 59.6774L82.5077 59.712L82.4612 59.34ZM86.9372 59.7639L85.8441 59.9007L85.6977 60.5863L85.188 60.6501L85.9007 57.6949L86.3406 57.6399L87.7616 60.328L87.25 60.392L86.9372 59.7639ZM85.9322 59.4881L86.7501 59.3857L86.1946 58.2664L85.9322 59.4881ZM90.3217 60.0075L89.8314 60.0689L88.3231 58.2244L88.5737 60.2263L88.0833 60.2877L87.7302 57.466L88.2205 57.4046L89.7337 59.2564L89.4821 57.2467L89.9685 57.1858L90.3217 60.0075ZM91.5817 58.342L92.0635 56.9235L92.6062 56.8556L91.8836 58.757L92.0136 59.7957L91.5214 59.8574L91.3913 58.8186L90.2205 57.1542L90.7651 57.0861L91.5817 58.342ZM95.4263 58.66L95.5946 56.4816L96.081 56.4207L95.783 59.3239L95.314 59.3826L94.5193 57.3897L94.2288 59.5185L93.7578 59.5774L92.7535 56.8372L93.2399 56.7763L93.9433 58.8417L94.2166 56.654L94.6275 56.6026L95.4263 58.66ZM98.2843 57.7314L97.1254 57.8765L97.234 58.7447L98.5887 58.5751L98.6377 58.9666L96.7927 59.1975L96.4395 56.3758L98.2709 56.1466L98.3204 56.5419L96.9793 56.7098L97.0769 57.4889L98.2358 57.3438L98.2843 57.7314ZM99.9377 57.6996L99.3912 57.768L99.5273 58.8553L99.0369 58.9166L98.6837 56.0949L99.676 55.9707C100.002 55.9299 100.262 55.9715 100.457 56.0953C100.653 56.2192 100.768 56.4193 100.802 56.6958C100.826 56.8845 100.8 57.0485 100.724 57.1879C100.649 57.3258 100.535 57.4392 100.381 57.528L101.162 58.6251L101.165 58.6503L100.64 58.716L99.9377 57.6996ZM99.3419 57.3746L99.8458 57.3116C100.011 57.2909 100.135 57.2333 100.218 57.139C100.3 57.0434 100.333 56.9232 100.314 56.7785C100.296 56.6274 100.238 56.5158 100.141 56.444C100.045 56.372 99.9119 56.3454 99.741 56.3641L99.2235 56.4289L99.3419 57.3746ZM103.005 57.1405L101.846 57.2855L101.955 58.1538L103.31 57.9842L103.359 58.3757L101.514 58.6066L101.161 55.7849L102.992 55.5556L103.041 55.951L101.7 56.1189L101.798 56.8979L102.957 56.7529L103.005 57.1405ZM106.13 57.2906C106.115 57.1666 106.059 57.0765 105.962 57.0203C105.867 56.964 105.702 56.9158 105.466 56.8758C105.23 56.8358 105.04 56.7822 104.895 56.715C104.617 56.5857 104.463 56.3912 104.43 56.1315C104.402 55.9041 104.471 55.7052 104.637 55.5348C104.804 55.3642 105.036 55.2604 105.332 55.2234C105.528 55.1988 105.708 55.2131 105.871 55.2662C106.034 55.3193 106.167 55.4075 106.272 55.5309C106.377 55.653 106.439 55.7954 106.459 55.9582L105.971 56.0193C105.953 55.872 105.892 55.7629 105.788 55.6918C105.686 55.6193 105.549 55.5938 105.377 55.6153C105.217 55.6354 105.097 55.6852 105.016 55.7649C104.937 55.8443 104.905 55.9454 104.92 56.0682C104.933 56.1715 104.992 56.2521 105.096 56.3099C105.2 56.3664 105.366 56.4139 105.594 56.4523C105.822 56.4894 106.008 56.5416 106.151 56.6089C106.295 56.675 106.404 56.7584 106.48 56.8591C106.555 56.9586 106.602 57.0807 106.62 57.2254C106.649 57.4605 106.582 57.6592 106.419 57.8214C106.257 57.9821 106.021 58.0818 105.712 58.1204C105.508 58.146 105.316 58.1321 105.134 58.0786C104.954 58.0237 104.808 57.9357 104.696 57.8146C104.585 57.6934 104.518 57.5442 104.496 57.3672L104.986 57.3059C105.007 57.4661 105.075 57.5835 105.192 57.6581C105.309 57.7327 105.466 57.7576 105.664 57.7328C105.834 57.7115 105.958 57.6612 106.035 57.5821C106.113 57.5015 106.144 57.4043 106.13 57.2906ZM108.877 55.2206L107.997 55.3307L108.301 57.7571L107.814 57.818L107.51 55.3916L106.638 55.5008L106.589 55.1054L108.827 54.8252L108.877 55.2206ZM110.453 56.3834L109.907 56.4518L110.043 57.539L109.553 57.6004L109.199 54.7787L110.192 54.6545C110.517 54.6137 110.778 54.6553 110.973 54.7791C111.168 54.9029 111.283 55.1031 111.318 55.3796C111.341 55.5682 111.315 55.7322 111.24 55.8716C111.165 56.0096 111.051 56.123 110.896 56.2118L111.677 57.3089L111.68 57.3341L111.155 57.3998L110.453 56.3834ZM109.858 56.0584L110.361 55.9953C110.527 55.9746 110.651 55.9171 110.733 55.8228C110.816 55.7272 110.848 55.607 110.83 55.4623C110.811 55.3111 110.753 55.1996 110.656 55.1278C110.561 55.0557 110.427 55.0291 110.257 55.0479L109.739 55.1127L109.858 56.0584ZM113.521 55.8243L112.362 55.9693L112.471 56.8375L113.825 56.668L113.874 57.0595L112.029 57.2904L111.676 54.4687L113.508 54.2394L113.557 54.6348L112.216 54.8026L112.313 55.5817L113.472 55.4367L113.521 55.8243ZM115.765 55.5433L114.606 55.6884L114.715 56.5566L116.069 56.3871L116.118 56.7785L114.274 57.0095L113.92 54.1878L115.752 53.9585L115.801 54.3539L114.46 54.5217L114.558 55.3008L115.717 55.1557L115.765 55.5433ZM118.292 54.0422L117.412 54.1523L117.715 56.5787L117.229 56.6396L116.925 54.2132L116.053 54.3223L116.004 53.927L118.242 53.6468L118.292 54.0422ZM120.951 55.2406C120.96 55.5452 120.879 55.7943 120.706 55.9878C120.533 56.18 120.286 56.2962 119.964 56.3365C119.74 56.3647 119.535 56.3365 119.35 56.2521C119.166 56.1662 119.015 56.0309 118.897 55.8461C118.78 55.6614 118.703 55.4394 118.666 55.1802L118.633 54.9166C118.6 54.6505 118.618 54.4101 118.687 54.1954C118.756 53.9808 118.871 53.8076 119.033 53.6757C119.196 53.5438 119.394 53.4633 119.625 53.4344C119.936 53.3954 120.197 53.4486 120.409 53.5941C120.62 53.7396 120.76 53.9648 120.83 54.2697L120.341 54.3308C120.293 54.1309 120.215 53.9923 120.108 53.9152C120.003 53.8365 119.858 53.8087 119.675 53.8316C119.461 53.8583 119.307 53.957 119.212 54.1278C119.117 54.297 119.088 54.5323 119.123 54.8337L119.154 55.0837C119.192 55.3886 119.276 55.6144 119.404 55.761C119.534 55.9075 119.704 55.9675 119.915 55.9412C120.107 55.9171 120.247 55.8557 120.333 55.757C120.419 55.6583 120.462 55.5065 120.463 55.3018L120.951 55.2406ZM122.024 56.0394L121.535 56.1005L121.182 53.2788L121.67 53.2177L122.024 56.0394ZM124.303 53.2897L123.423 53.3998L123.727 55.8262L123.241 55.8871L122.937 53.4607L122.065 53.5699L122.015 53.1745L124.254 52.8943L124.303 53.2897ZM125.745 54.0659L126.227 52.6474L126.769 52.5795L126.047 54.4808L126.177 55.5196L125.684 55.5812L125.554 54.5424L124.384 52.8781L124.928 52.8099L125.745 54.0659ZM127.08 56.0521L126.807 55.9327C126.867 55.8058 126.906 55.6967 126.922 55.6054C126.939 55.5153 126.943 55.425 126.933 55.3344L126.887 54.9681L127.312 54.915L127.352 55.2543C127.368 55.3915 127.35 55.5328 127.299 55.6783C127.249 55.825 127.176 55.9496 127.08 56.0521ZM64.989 68.2174L64.52 68.2761L64.2364 66.0106L63.5742 66.3336L63.5244 65.9363L64.5745 65.3935L64.6346 65.386L64.989 68.2174ZM67.8669 67.8572L65.9696 68.0947L65.9291 67.771L66.7407 66.6282C66.8575 66.46 66.938 66.322 66.9822 66.2141C67.0276 66.1048 67.0439 65.9991 67.0311 65.897C67.0143 65.7626 66.9626 65.6589 66.876 65.5857C66.7907 65.5124 66.6841 65.4838 66.5562 65.4998C66.4037 65.5188 66.2913 65.5802 66.219 65.6837C66.1467 65.7872 66.1206 65.9197 66.1408 66.0812L65.6699 66.1402C65.6484 65.9684 65.6678 65.8091 65.7282 65.6625C65.7897 65.5143 65.888 65.3931 66.0232 65.2988C66.1597 65.2043 66.3228 65.1451 66.5128 65.1214C66.7867 65.0871 67.0111 65.1292 67.186 65.2477C67.3621 65.3648 67.4653 65.5448 67.4957 65.7876C67.5133 65.9285 67.4918 66.0814 67.4311 66.2465C67.3715 66.4101 67.2636 66.6014 67.1073 66.8204L66.5098 67.6452L67.8199 67.4812L67.8669 67.8572ZM68.5665 66.1181L68.8534 66.0822C68.9979 66.0628 69.1076 66.0111 69.1823 65.9269C69.2584 65.8426 69.2877 65.7307 69.2702 65.5911C69.2534 65.4568 69.2048 65.3572 69.1246 65.2924C69.0454 65.2262 68.9335 65.2022 68.7888 65.2203C68.6622 65.2362 68.5628 65.286 68.4906 65.3698C68.4182 65.4524 68.3894 65.5524 68.4041 65.67L67.9332 65.7289C67.9151 65.5842 67.9367 65.4477 67.9981 65.3193C68.0607 65.1907 68.1564 65.0849 68.2851 65.0019C68.4149 64.9174 68.5651 64.8645 68.7357 64.8431C69.0173 64.8079 69.2471 64.8513 69.4251 64.9733C69.6043 65.094 69.7096 65.2802 69.7411 65.5322C69.757 65.6588 69.7312 65.7834 69.6639 65.906C69.5977 66.0271 69.5042 66.1241 69.3834 66.197C69.5451 66.2306 69.6731 66.2992 69.7674 66.4028C69.8631 66.5063 69.9207 66.6369 69.9405 66.7945C69.9722 67.0478 69.9102 67.2602 69.7545 67.4319C69.6002 67.6035 69.3815 67.707 69.0986 67.7424C68.8272 67.7763 68.596 67.7318 68.4047 67.6088C68.2135 67.4857 68.1028 67.3041 68.0727 67.0638L68.5437 67.0048C68.5592 67.1288 68.6132 67.2244 68.7055 67.2916C68.7992 67.3586 68.9165 67.3833 69.0573 67.3657C69.2033 67.3474 69.3134 67.2943 69.3877 67.2062C69.462 67.1182 69.4899 67.0005 69.4715 66.8532C69.4529 66.7047 69.3946 66.5958 69.2968 66.5267C69.1989 66.4576 69.0634 66.4339 68.8902 66.4556L68.6131 66.4902L68.5665 66.1181ZM71.9485 66.3247L72.2992 66.2808L72.3465 66.6587L71.9958 66.7026L72.0744 67.3305L71.6034 67.3895L71.5248 66.7616L70.3058 66.9142L70.2563 66.629L71.2347 64.5697L71.7212 64.5088L71.9485 66.3247ZM70.7391 66.4761L71.4775 66.3837L71.33 65.2054L71.3029 65.2717L70.7391 66.4761ZM72.688 65.8326L72.663 64.3909L74.1785 64.2012L74.2295 64.6082L73.1054 64.7489L73.1123 65.433C73.2335 65.3417 73.3761 65.2858 73.5401 65.2653C73.8089 65.2317 74.0283 65.2915 74.1984 65.4447C74.3698 65.5978 74.4736 65.8197 74.51 66.1104C74.5459 66.3972 74.4919 66.6362 74.3478 66.8275C74.2036 67.0174 73.9875 67.1304 73.6994 67.1665C73.441 67.1988 73.2174 67.1527 73.0285 67.028C72.8409 66.9019 72.7249 66.7196 72.6806 66.4811L73.136 66.4241C73.1712 66.5588 73.2335 66.6579 73.3228 66.7215C73.412 66.7839 73.5212 66.8069 73.6504 66.7908C73.7951 66.7727 73.901 66.7069 73.9682 66.5935C74.0366 66.48 74.0597 66.3341 74.0374 66.1558C74.0159 65.9839 73.9543 65.8538 73.8527 65.7655C73.751 65.6759 73.6219 65.6409 73.4656 65.6604C73.3803 65.6711 73.3094 65.6918 73.2529 65.7225C73.1962 65.7519 73.1371 65.8039 73.0756 65.8785L72.688 65.8326ZM75.8104 65.8374L74.793 65.9647L74.7454 65.5849L75.7629 65.4575L75.8104 65.8374ZM77.8124 64.5022C77.8297 64.6405 77.8096 64.7683 77.7522 64.8857C77.6945 65.0018 77.6082 65.0986 77.4932 65.176C77.6491 65.226 77.7739 65.3055 77.8676 65.4145C77.9625 65.5234 78.0194 65.6527 78.0382 65.8026C78.0692 66.0507 78.0099 66.2582 77.8602 66.4252C77.7104 66.591 77.4959 66.6913 77.2168 66.7262C76.9365 66.7613 76.7025 66.7165 76.515 66.5916C76.3288 66.4667 76.2202 66.2808 76.1893 66.034C76.1704 65.8829 76.1935 65.7422 76.2585 65.612C76.3236 65.4818 76.4244 65.3754 76.5611 65.2927C76.4319 65.2458 76.325 65.1733 76.2405 65.0749C76.1572 64.9751 76.1068 64.8561 76.0895 64.7179C76.0595 64.4776 76.1131 64.2773 76.2505 64.117C76.388 63.9568 76.5884 63.8602 76.852 63.8272C77.1169 63.7941 77.3356 63.8382 77.5083 63.9596C77.681 64.081 77.7823 64.2619 77.8124 64.5022ZM77.5643 65.8383C77.5469 65.6988 77.4908 65.5916 77.3962 65.5169C77.3026 65.4406 77.1874 65.4111 77.0504 65.4282C76.9135 65.4454 76.809 65.5018 76.737 65.5974C76.6663 65.6929 76.6397 65.811 76.6573 65.9518C76.6747 66.0901 76.7285 66.1955 76.819 66.2682C76.9107 66.3407 77.0277 66.368 77.1698 66.3502C77.3119 66.3325 77.4174 66.2786 77.4861 66.1886C77.5562 66.0985 77.5823 65.9817 77.5643 65.8383ZM77.3456 64.5784C77.3302 64.4556 77.2821 64.3593 77.2012 64.2894C77.1201 64.2182 77.0195 64.1901 76.8993 64.2051C76.7792 64.2202 76.689 64.2702 76.6287 64.3551C76.5684 64.4388 76.5463 64.5459 76.5627 64.6764C76.5788 64.8056 76.6266 64.9039 76.7059 64.9714C76.7865 65.0387 76.8869 65.0649 77.007 65.0498C77.1272 65.0348 77.2174 64.9848 77.2776 64.8998C77.3391 64.8147 77.3618 64.7076 77.3456 64.5784ZM80.1086 63.7247L79.3012 66.426L78.807 66.4878L79.6271 63.9031L78.1677 64.0857L78.1204 63.7078L80.0759 63.463L80.1086 63.7247ZM80.7578 64.8225L80.7329 63.3808L82.2484 63.1911L82.2993 63.5981L81.1753 63.7388L81.1822 64.4229C81.3033 64.3317 81.4459 64.2757 81.61 64.2552C81.8787 64.2216 82.0981 64.2814 82.2682 64.4346C82.4396 64.5877 82.5435 64.8096 82.5799 65.1003C82.6158 65.3871 82.5617 65.6261 82.4177 65.8174C82.2735 66.0073 82.0573 66.1203 81.7692 66.1564C81.5108 66.1887 81.2872 66.1426 81.0984 66.0179C80.9107 65.8918 80.7947 65.7095 80.7504 65.471L81.2058 65.414C81.2411 65.5487 81.3034 65.6478 81.3927 65.7114C81.4818 65.7738 81.591 65.7968 81.7202 65.7807C81.8649 65.7626 81.9709 65.6968 82.038 65.5834C82.1065 65.4699 82.1296 65.324 82.1072 65.1457C82.0857 64.9738 82.0242 64.8437 81.9226 64.7554C81.8208 64.6658 81.6918 64.6308 81.5354 64.6503C81.4502 64.661 81.3793 64.6817 81.3227 64.7124C81.2661 64.7418 81.207 64.7938 81.1454 64.8684L80.7578 64.8225ZM83.3244 65.4185C83.4122 65.4075 83.4832 65.4242 83.5373 65.4686C83.5913 65.5117 83.6229 65.5707 83.6323 65.6457C83.6415 65.7193 83.6253 65.7837 83.5837 65.8387C83.5418 65.8925 83.477 65.9249 83.3891 65.9359C83.3052 65.9464 83.2356 65.9309 83.1805 65.8892C83.1255 65.8475 83.0932 65.7892 83.0839 65.7143C83.0745 65.6394 83.0906 65.5744 83.1323 65.5193C83.1738 65.4629 83.2378 65.4293 83.3244 65.4185Z" fill="#013047"/>
<path d="M65.4562 77.7045L65.5874 78.753L65.0971 78.8144L64.7439 75.9926L65.8234 75.8575C66.1386 75.818 66.3989 75.8688 66.6042 76.0098C66.8108 76.1506 66.931 76.356 66.9648 76.626C66.9994 76.9025 66.9352 77.129 66.7723 77.3055C66.6107 77.4819 66.3664 77.5906 66.0395 77.6315L65.4562 77.7045ZM65.4069 77.3111L65.9961 77.2374C66.1705 77.2155 66.2985 77.1582 66.38 77.0653C66.4614 76.9711 66.4924 76.8465 66.473 76.6915C66.4539 76.539 66.3922 76.4234 66.2879 76.3446C66.1834 76.2645 66.0495 76.2334 65.8864 76.2512L65.2837 76.3266L65.4069 77.3111ZM67.8206 76.5759C67.9521 76.3784 68.1354 76.2649 68.3705 76.2355C68.8175 76.1795 69.0762 76.4063 69.1466 76.9158L69.3181 78.286L68.8471 78.345L68.6778 76.9922C68.6597 76.8475 68.6153 76.7494 68.5445 76.6979C68.4749 76.645 68.3794 76.6261 68.2579 76.6413C68.0693 76.6649 67.939 76.7665 67.867 76.9461L68.0545 78.4442L67.5836 78.5031L67.211 75.5264L67.6819 75.4674L67.8206 76.5759ZM69.5739 77.1694C69.5482 76.964 69.5658 76.7741 69.6267 76.5999C69.6874 76.4243 69.7859 76.2834 69.9221 76.1771C70.0583 76.0695 70.2219 76.0037 70.4132 75.9798C70.6961 75.9444 70.9368 76.0068 71.1354 76.1669C71.3352 76.327 71.461 76.5566 71.5129 76.8559L71.5287 76.9661C71.5545 77.1728 71.5376 77.3626 71.4779 77.5354C71.4195 77.708 71.3215 77.8483 71.1841 77.956C71.048 78.0636 70.883 78.1295 70.6892 78.1538C70.3933 78.1908 70.144 78.1223 69.9411 77.9482C69.7393 77.7727 69.6179 77.5208 69.5769 77.1927L69.5739 77.1694ZM70.05 77.1512C70.077 77.3669 70.1427 77.5306 70.2473 77.6422C70.3516 77.7525 70.4832 77.7977 70.6422 77.7778C70.8011 77.7579 70.9167 77.6804 70.989 77.5454C71.0626 77.4102 71.0845 77.2231 71.0546 76.9841C71.0281 76.7722 70.9612 76.61 70.8539 76.4974C70.7479 76.3847 70.6168 76.3381 70.4605 76.3577C70.3067 76.377 70.1923 76.4536 70.1172 76.5877C70.042 76.7204 70.0196 76.9083 70.05 77.1512ZM72.23 75.7918L72.2739 76.0323C72.4055 75.8256 72.5973 75.7064 72.8492 75.6749C73.2859 75.6202 73.5394 75.8424 73.6098 76.3414L73.7832 77.7271L73.3123 77.7861L73.1422 76.4275C73.1256 76.2944 73.0842 76.1999 73.0182 76.1439C72.9532 76.0864 72.8555 76.0658 72.725 76.0821C72.5351 76.1059 72.4044 76.2095 72.3329 76.393L72.5197 77.8853L72.0487 77.9442L71.7862 75.8473L72.23 75.7918ZM75.1931 77.59C74.8947 77.6274 74.6407 77.564 74.4312 77.4C74.2228 77.2345 74.0991 76.9954 74.06 76.6827L74.0527 76.6246C74.0265 76.4153 74.0432 76.2236 74.1027 76.0494C74.1634 75.8739 74.261 75.7311 74.3955 75.6211C74.5301 75.5111 74.6871 75.4448 74.8667 75.4224C75.1522 75.3866 75.3839 75.4501 75.5618 75.6129C75.7409 75.7755 75.8513 76.0235 75.893 76.3568L75.9168 76.5467L74.5466 76.7182C74.5825 76.8896 74.6572 77.0193 74.7706 77.1075C74.8852 77.1955 75.0195 77.2299 75.1732 77.2106C75.389 77.1836 75.5538 77.0744 75.6676 76.883L75.9518 77.0935C75.8835 77.2293 75.7833 77.341 75.6512 77.4283C75.5202 77.5143 75.3676 77.5682 75.1931 77.59ZM74.9121 75.8005C74.7829 75.8167 74.6839 75.875 74.6151 75.9755C74.5476 76.0758 74.513 76.2081 74.5112 76.3723L75.4085 76.26L75.4041 76.2251C75.3741 76.0688 75.3172 75.9552 75.2335 75.8843C75.1497 75.8121 75.0426 75.7842 74.9121 75.8005ZM76.6184 76.8683C76.7063 76.8573 76.7773 76.874 76.8314 76.9184C76.8853 76.9616 76.917 77.0206 76.9264 77.0955C76.9356 77.1692 76.9194 77.2335 76.8777 77.2886C76.8359 77.3424 76.7711 77.3748 76.6832 77.3858C76.5992 77.3963 76.5297 77.3807 76.4746 77.3391C76.4195 77.2974 76.3873 77.2391 76.3779 77.1642C76.3686 77.0892 76.3847 77.0242 76.4263 76.9691C76.4678 76.9128 76.5319 76.8792 76.6184 76.8683ZM76.4125 75.223C76.5003 75.212 76.5713 75.2287 76.6254 75.2731C76.6794 75.3162 76.7111 75.3752 76.7204 75.4502C76.7297 75.5238 76.7134 75.5882 76.6718 75.6432C76.63 75.697 76.5651 75.7294 76.4773 75.7404C76.3933 75.7509 76.3238 75.7354 76.2687 75.6937C76.2136 75.652 76.1814 75.5937 76.172 75.5188C76.1626 75.4439 76.1787 75.3789 76.2204 75.3238C76.2619 75.2674 76.3259 75.2338 76.4125 75.223ZM66.5664 82.0928L67.3029 82.0006L67.3567 82.4308L66.6203 82.523L66.7253 83.3622L66.268 83.4194L66.1629 82.5803L65.4226 82.6729L65.3688 82.2427L66.1091 82.15L66.0108 81.3651L66.4682 81.3079L66.5664 82.0928ZM67.8065 82.0931L67.7816 80.6514L69.2971 80.4617L69.3481 80.8687L68.224 81.0094L68.2309 81.6935C68.352 81.6023 68.4946 81.5463 68.6587 81.5258C68.9274 81.4922 69.1469 81.552 69.3169 81.7052C69.4883 81.8583 69.5922 82.0802 69.6286 82.3709C69.6645 82.6577 69.6104 82.8967 69.4664 83.088C69.3222 83.2779 69.1061 83.3909 68.8179 83.427C68.5595 83.4593 68.3359 83.4132 68.1471 83.2885C67.9594 83.1624 67.8434 82.9801 67.7991 82.7416L68.2546 82.6846C68.2898 82.8193 68.3521 82.9184 68.4414 82.982C68.5306 83.0444 68.6397 83.0674 68.7689 83.0513C68.9136 83.0332 69.0196 82.9674 69.0868 82.854C69.1552 82.7405 69.1783 82.5946 69.156 82.4163C69.1345 82.2444 69.0729 82.1143 68.9713 82.026C68.8695 81.9364 68.7405 81.9014 68.5842 81.9209C68.4989 81.9316 68.428 81.9523 68.3715 81.983C68.3148 82.0124 68.2557 82.0644 68.1942 82.139L67.8065 82.0931ZM70.0624 81.8107L70.0374 80.3691L71.5529 80.1794L71.6039 80.5863L70.4798 80.727L70.4867 81.4112C70.6079 81.3199 70.7505 81.264 70.9145 81.2434C71.1833 81.2098 71.4027 81.2696 71.5728 81.4228C71.7442 81.5759 71.848 81.7978 71.8844 82.0885C71.9203 82.3753 71.8663 82.6144 71.7222 82.8056C71.578 82.9956 71.3619 83.1086 71.0738 83.1446C70.8154 83.177 70.5918 83.1308 70.4029 83.0062C70.2153 82.8801 70.0993 82.6978 70.055 82.4592L70.5104 82.4022C70.5456 82.5369 70.6079 82.6361 70.6972 82.6997C70.7864 82.762 70.8956 82.7851 71.0248 82.7689C71.1695 82.7508 71.2754 82.685 71.3426 82.5717C71.411 82.4581 71.4341 82.3122 71.4118 82.1339C71.3903 81.9621 71.3287 81.832 71.2271 81.7437C71.1254 81.654 70.9963 81.619 70.84 81.6386C70.7547 81.6493 70.6838 81.6699 70.6273 81.7006C70.5706 81.73 70.5115 81.782 70.45 81.8567L70.0624 81.8107ZM73.8845 80.6434C73.9018 80.7816 73.8817 80.9094 73.8242 81.0269C73.7666 81.143 73.6803 81.2398 73.5653 81.3171C73.7212 81.3672 73.8459 81.4467 73.9396 81.5557C74.0346 81.6645 74.0915 81.7939 74.1102 81.9438C74.1413 82.1918 74.082 82.3994 73.9323 82.5664C73.7824 82.7321 73.568 82.8324 73.2889 82.8674C73.0085 82.9025 72.7746 82.8576 72.5871 82.7328C72.4008 82.6078 72.2923 82.422 72.2614 82.1752C72.2425 82.024 72.2655 81.8833 72.3306 81.7532C72.3957 81.623 72.4965 81.5165 72.6331 81.4338C72.5039 81.387 72.3971 81.3144 72.3126 81.2161C72.2292 81.1163 72.1789 80.9973 72.1616 80.859C72.1315 80.6187 72.1852 80.4184 72.3226 80.2582C72.46 80.098 72.6605 80.0014 72.9241 79.9684C73.1889 79.9352 73.4077 79.9793 73.5804 80.1008C73.753 80.2222 73.8544 80.4031 73.8845 80.6434ZM73.6364 81.9794C73.6189 81.8399 73.5629 81.7328 73.4682 81.658C73.3747 81.5818 73.2595 81.5523 73.1225 81.5694C72.9856 81.5865 72.8811 81.6429 72.8091 81.7385C72.7383 81.834 72.7118 81.9521 72.7294 82.093C72.7467 82.2312 72.8006 82.3367 72.8911 82.4093C72.9828 82.4818 73.0997 82.5092 73.2419 82.4914C73.384 82.4736 73.4894 82.4197 73.5582 82.3298C73.6283 82.2396 73.6544 82.1229 73.6364 81.9794ZM73.4177 80.7195C73.4023 80.5968 73.3542 80.5004 73.2732 80.4305C73.1922 80.3593 73.0915 80.3312 72.9714 80.3463C72.8512 80.3613 72.761 80.4113 72.7008 80.4963C72.6404 80.5799 72.6184 80.687 72.6347 80.8175C72.6509 80.9467 72.6986 81.0451 72.7779 81.1126C72.8585 81.1799 72.9589 81.206 73.0791 81.191C73.1992 81.176 73.2894 81.126 73.3497 81.041C73.4112 80.9559 73.4339 80.8487 73.4177 80.7195ZM75.8984 82.5014L75.4294 82.5601L75.1459 80.2946L74.4836 80.6176L74.4339 80.2203L75.4839 79.6775L75.544 79.67L75.8984 82.5014ZM78.3462 81.1734L78.697 81.1295L78.7443 81.5074L78.3935 81.5513L78.4721 82.1792L78.0012 82.2382L77.9226 81.6103L76.7036 81.7628L76.6541 81.4777L77.6325 79.4184L78.1189 79.3575L78.3462 81.1734ZM77.1369 81.3248L77.8753 81.2324L77.7278 80.054L77.7007 80.1204L77.1369 81.3248ZM80.652 79.7963C80.6693 79.9345 80.6492 80.0624 80.5917 80.1798C80.5341 80.2959 80.4478 80.3927 80.3328 80.4701C80.4887 80.5201 80.6134 80.5996 80.7071 80.7086C80.8021 80.8174 80.859 80.9468 80.8778 81.0967C80.9088 81.3447 80.8495 81.5523 80.6998 81.7193C80.55 81.885 80.3355 81.9854 80.0564 82.0203C79.7761 82.0554 79.5421 82.0105 79.3546 81.8857C79.1683 81.7607 79.0598 81.5749 79.0289 81.3281C79.01 81.1769 79.033 81.0363 79.0981 80.9061C79.1632 80.7759 79.264 80.6694 79.4006 80.5867C79.2714 80.5399 79.1646 80.4673 79.0801 80.369C78.9967 80.2692 78.9464 80.1502 78.9291 80.0119C78.899 79.7716 78.9527 79.5714 79.0901 79.4111C79.2275 79.2509 79.428 79.1543 79.6916 79.1213C79.9564 79.0881 80.1752 79.1323 80.3479 79.2537C80.5205 79.3751 80.6219 79.556 80.652 79.7963ZM80.4039 81.1324C80.3864 80.9928 80.3304 80.8857 80.2357 80.8109C80.1422 80.7347 80.027 80.7052 79.89 80.7223C79.7531 80.7395 79.6486 80.7958 79.5766 80.8915C79.5058 80.9869 79.4793 81.1051 79.4969 81.2459C79.5142 81.3841 79.5681 81.4896 79.6586 81.5623C79.7503 81.6348 79.8672 81.6621 80.0094 81.6443C80.1515 81.6265 80.2569 81.5726 80.3257 81.4827C80.3958 81.3925 80.4219 81.2758 80.4039 81.1324ZM80.1852 79.8724C80.1698 79.7497 80.1217 79.6534 80.0408 79.5834C79.9597 79.5122 79.859 79.4842 79.7389 79.4992C79.6187 79.5142 79.5285 79.5642 79.4683 79.6492C79.4079 79.7329 79.3859 79.8399 79.4022 79.9704C79.4184 80.0996 79.4661 80.198 79.5455 80.2655C79.6261 80.3328 79.7264 80.359 79.8466 80.3439C79.9667 80.3289 80.0569 80.2789 80.1172 80.1939C80.1787 80.1088 80.2014 80.0016 80.1852 79.8724ZM82.9482 79.0187L82.1407 81.72L81.6465 81.7819L82.4666 79.1971L81.0073 79.3798L80.96 79.0019L82.9155 78.7571L82.9482 79.0187ZM85.1637 79.2316C85.181 79.3698 85.1609 79.4976 85.1034 79.6151C85.0458 79.7312 84.9595 79.828 84.8445 79.9053C85.0003 79.9554 85.1251 80.0349 85.2188 80.1439C85.3138 80.2527 85.3707 80.3821 85.3894 80.532C85.4205 80.78 85.3612 80.9876 85.2115 81.1546C85.0616 81.3203 84.8472 81.4206 84.5681 81.4556C84.2877 81.4907 84.0538 81.4458 83.8663 81.321C83.68 81.196 83.5715 81.0101 83.5406 80.7634C83.5216 80.6122 83.5447 80.4715 83.6098 80.3414C83.6748 80.2112 83.7757 80.1047 83.9123 80.022C83.7831 79.9752 83.6762 79.9026 83.5918 79.8043C83.5084 79.7045 83.4581 79.5855 83.4408 79.4472C83.4107 79.2069 83.4644 79.0066 83.6018 78.8464C83.7392 78.6862 83.9397 78.5895 84.2033 78.5566C84.4681 78.5234 84.6869 78.5675 84.8595 78.689C85.0322 78.8104 85.1336 78.9913 85.1637 79.2316ZM84.9156 80.5676C84.8981 80.4281 84.8421 80.321 84.7474 80.2462C84.6539 80.17 84.5386 80.1404 84.4017 80.1576C84.2647 80.1747 84.1602 80.2311 84.0882 80.3267C84.0175 80.4222 83.991 80.5403 84.0086 80.6812C84.0259 80.8194 84.0798 80.9249 84.1702 80.9975C84.262 81.07 84.3789 81.0974 84.521 81.0796C84.6631 81.0618 84.7686 81.0079 84.8374 80.918C84.9075 80.8278 84.9335 80.7111 84.9156 80.5676ZM84.6969 79.3077C84.6815 79.185 84.6333 79.0886 84.5524 79.0187C84.4713 78.9475 84.3707 78.9194 84.2506 78.9345C84.1304 78.9495 84.0402 78.9995 83.98 79.0845C83.9196 79.1681 83.8976 79.2752 83.9139 79.4057C83.9301 79.5349 83.9778 79.6333 84.0571 79.7008C84.1377 79.7681 84.2381 79.7942 84.3583 79.7792C84.4784 79.7642 84.5686 79.7142 84.6288 79.6292C84.6904 79.5441 84.713 79.4369 84.6969 79.3077ZM87.0899 79.9018C86.9532 80.0882 86.7795 80.1946 86.5689 80.2209C86.3208 80.252 86.1123 80.1902 85.9434 80.0355C85.7743 79.8795 85.672 79.66 85.6366 79.3771C85.6133 79.191 85.6296 79.0177 85.6857 78.8572C85.7417 78.6966 85.8336 78.5657 85.9613 78.4645C86.089 78.3632 86.244 78.3011 86.4261 78.2783C86.7104 78.2427 86.9491 78.3205 87.1423 78.5115C87.3355 78.7025 87.4543 78.9757 87.4988 79.331L87.5153 79.4628C87.579 79.9718 87.5126 80.3745 87.3161 80.6707C87.1196 80.9669 86.7936 81.1455 86.338 81.2065L86.2818 81.2135L86.233 80.824L86.3008 80.8155C86.5781 80.7768 86.783 80.6836 86.9154 80.5358C87.0476 80.3867 87.1058 80.1754 87.0899 79.9018ZM86.6217 79.8404C86.716 79.8285 86.8011 79.7903 86.877 79.7257C86.9529 79.6611 87.0074 79.5782 87.0407 79.4769L87.0177 79.2928C86.9916 79.0848 86.928 78.9228 86.8269 78.8069C86.7258 78.6909 86.6074 78.6414 86.4717 78.6584C86.3361 78.6754 86.2346 78.7452 86.1673 78.8678C86.1011 78.9889 86.0786 79.1348 86.1 79.3053C86.1221 79.4823 86.1807 79.62 86.2757 79.7183C86.3707 79.8167 86.486 79.8573 86.6217 79.8404ZM89.6753 78.6668C89.6926 78.8051 89.6726 78.9329 89.6151 79.0503C89.5574 79.1665 89.4711 79.2632 89.3562 79.3406C89.512 79.3906 89.6368 79.4702 89.7305 79.5792C89.8255 79.688 89.8823 79.8174 89.9011 79.9672C89.9321 80.2153 89.8728 80.4228 89.7231 80.5899C89.5733 80.7556 89.3588 80.8559 89.0798 80.8908C88.7994 80.9259 88.5654 80.8811 88.3779 80.7563C88.1917 80.6313 88.0831 80.4454 88.0522 80.1987C88.0333 80.0475 88.0564 79.9068 88.1215 79.7766C88.1865 79.6464 88.2874 79.54 88.424 79.4573C88.2948 79.4105 88.1879 79.3379 88.1034 79.2396C88.0201 79.1398 87.9698 79.0207 87.9525 78.8825C87.9224 78.6422 87.976 78.4419 88.1135 78.2817C88.2509 78.1214 88.4514 78.0248 88.7149 77.9918C88.9798 77.9587 89.1985 78.0028 89.3712 78.1242C89.5439 78.2457 89.6453 78.4265 89.6753 78.6668ZM89.4272 80.0029C89.4098 79.8634 89.3537 79.7562 89.2591 79.6815C89.1655 79.6053 89.0503 79.5757 88.9134 79.5929C88.7764 79.61 88.6719 79.6664 88.5999 79.762C88.5292 79.8575 88.5026 79.9756 88.5203 80.1164C88.5376 80.2547 88.5914 80.3601 88.6819 80.4328C88.7736 80.5053 88.8906 80.5327 89.0327 80.5149C89.1748 80.4971 89.2803 80.4432 89.3491 80.3532C89.4191 80.2631 89.4452 80.1463 89.4272 80.0029ZM89.2085 78.743C89.1932 78.6202 89.145 78.5239 89.0641 78.454C88.983 78.3828 88.8824 78.3547 88.7622 78.3697C88.6421 78.3848 88.5519 78.4348 88.4917 78.5197C88.4313 78.6034 88.4092 78.7105 88.4256 78.841C88.4417 78.9702 88.4895 79.0685 88.5688 79.136C88.6494 79.2034 88.7498 79.2295 88.8699 79.2145C88.9901 79.1994 89.0803 79.1494 89.1405 79.0645C89.202 78.9793 89.2247 78.8722 89.2085 78.743Z" fill="#013047"/>
<path d="M63.2749 46.5458L62.7846 46.6071L61.2763 44.7626L61.5269 46.7646L61.0366 46.8259L60.6834 44.0042L61.1737 43.9428L62.6869 45.7946L62.4353 43.7849L62.9218 43.724L63.2749 46.5458ZM65.0618 46.3221C65.0361 46.2846 65.0098 46.2217 64.983 46.1332C64.8527 46.3083 64.679 46.4094 64.462 46.4366C64.2514 46.4629 64.072 46.4243 63.9239 46.3209C63.7758 46.2174 63.6907 46.0771 63.6685 45.9001C63.6405 45.6766 63.7018 45.495 63.8523 45.3555C64.0039 45.2145 64.2341 45.1246 64.5429 45.086L64.8317 45.0498L64.8144 44.9122C64.8009 44.8037 64.7597 44.7209 64.6909 44.6639C64.6219 44.6056 64.5254 44.5843 64.4014 44.5998C64.2941 44.6132 64.2097 44.6513 64.148 44.7142C64.0861 44.7757 64.0604 44.8478 64.0707 44.9305L63.5998 44.9895C63.5854 44.8745 63.6101 44.7625 63.6739 44.6534C63.7375 44.5431 63.831 44.4514 63.9544 44.3782C64.079 44.3049 64.2221 44.2581 64.3836 44.2379C64.6291 44.2071 64.8326 44.2447 64.9941 44.3504C65.1555 44.4549 65.2521 44.6186 65.2839 44.8417L65.4023 45.7874C65.4259 45.976 65.4712 46.1232 65.5383 46.229L65.5424 46.262L65.0618 46.3221ZM64.5019 46.0477C64.5949 46.0361 64.6793 46.0026 64.755 45.9472C64.8321 45.8916 64.8865 45.8231 64.9183 45.7417L64.8688 45.3463L64.6149 45.3781C64.4405 45.4 64.3132 45.4467 64.2329 45.5184C64.1526 45.5902 64.1195 45.6816 64.1334 45.7927C64.1447 45.8831 64.1835 45.9518 64.2497 45.9986C64.317 46.044 64.4011 46.0603 64.5019 46.0477ZM66.1365 44.0578L66.1775 44.2751C66.3033 44.0848 66.4941 43.9737 66.7499 43.9417C67.0303 43.9066 67.2356 43.9898 67.3658 44.1913C67.4914 43.9578 67.6924 43.8237 67.9689 43.7891C68.2002 43.7601 68.38 43.8026 68.5084 43.9164C68.6381 44.0301 68.7199 44.2115 68.7537 44.4605L68.9262 45.8384L68.4552 45.8974L68.2845 44.533C68.2678 44.3999 68.2265 44.306 68.1606 44.2513C68.0947 44.1965 67.9946 44.1776 67.8602 44.1944C67.753 44.2078 67.6688 44.2479 67.6076 44.3146C67.5475 44.3799 67.5097 44.4607 67.4942 44.5571L67.6762 45.9949L67.2052 46.0538L67.0325 44.674C66.9952 44.428 66.8537 44.3204 66.6083 44.3511C66.4196 44.3747 66.2955 44.4683 66.236 44.6319L66.4261 46.1513L65.9552 46.2103L65.6927 44.1134L66.1365 44.0578ZM70.338 45.7011C70.0396 45.7384 69.7856 45.6751 69.5761 45.511C69.3677 45.3455 69.244 45.1064 69.2048 44.7938L69.1975 44.7356C69.1713 44.5263 69.188 44.3346 69.2476 44.1605C69.3083 43.9849 69.4059 43.8421 69.5404 43.7321C69.6749 43.6221 69.832 43.5559 70.0116 43.5334C70.2971 43.4977 70.5288 43.5612 70.7066 43.724C70.8858 43.8866 70.9962 44.1345 71.0379 44.4679L71.0617 44.6578L69.6915 44.8293C69.7274 45.0006 69.802 45.1304 69.9154 45.2186C70.0301 45.3066 70.1643 45.3409 70.3181 45.3217C70.5338 45.2947 70.6986 45.1855 70.8125 44.9941L71.0967 45.2046C71.0284 45.3404 70.9282 45.452 70.7961 45.5394C70.6651 45.6253 70.5124 45.6792 70.338 45.7011ZM70.0569 43.9116C69.9277 43.9277 69.8287 43.9861 69.76 44.0865C69.6925 44.1868 69.6578 44.3191 69.6561 44.4834L70.5534 44.371L70.549 44.3362C70.519 44.1798 70.4621 44.0662 70.3784 43.9953C70.2946 43.9232 70.1874 43.8952 70.0569 43.9116ZM71.7633 44.9794C71.8512 44.9684 71.9222 44.9851 71.9763 45.0295C72.0302 45.0726 72.0619 45.1316 72.0713 45.2066C72.0805 45.2802 72.0643 45.3446 72.0226 45.3997C71.9808 45.4534 71.9159 45.4858 71.8281 45.4968C71.7441 45.5073 71.6746 45.4918 71.6195 45.4501C71.5644 45.4085 71.5322 45.3502 71.5228 45.2752C71.5134 45.2003 71.5296 45.1353 71.5712 45.0802C71.6127 45.0238 71.6767 44.9902 71.7633 44.9794ZM71.5574 43.334C71.6452 43.323 71.7162 43.3397 71.7703 43.3841C71.8243 43.4272 71.8559 43.4863 71.8653 43.5612C71.8745 43.6349 71.8583 43.6992 71.8166 43.7543C71.7748 43.8081 71.71 43.8405 71.6221 43.8515C71.5382 43.862 71.4686 43.8464 71.4135 43.8047C71.3585 43.7631 71.3262 43.7048 71.3169 43.6299C71.3075 43.5549 71.3236 43.4899 71.3653 43.4348C71.4068 43.3785 71.4708 43.3449 71.5574 43.334ZM75.8681 44.9695L75.3778 45.0309L73.8694 43.1863L74.12 45.1883L73.6297 45.2497L73.2765 42.4279L73.7668 42.3666L75.28 44.2184L75.0285 42.2087L75.5149 42.1478L75.8681 44.9695ZM77.9797 44.0379L76.8866 44.1747L76.7402 44.8603L76.2305 44.9241L76.9432 41.969L77.3831 41.9139L78.8042 44.602L78.2925 44.666L77.9797 44.0379ZM76.9747 43.7622L77.7926 43.6598L77.2372 42.5404L76.9747 43.7622ZM79.4083 41.6604L80.493 43.7214L81.0343 41.4569L81.668 41.3776L82.0212 44.1993L81.5329 44.2604L81.4164 43.3302L81.3091 42.0799L80.748 44.3587L80.3972 44.4026L79.2939 42.3342L79.4978 43.5704L79.6142 44.5006L79.1259 44.5617L78.7727 41.74L79.4083 41.6604ZM84.0942 42.6604L82.9353 42.8055L83.044 43.6737L84.3986 43.5041L84.4476 43.8956L82.6026 44.1265L82.2494 41.3048L84.0809 41.0756L84.1303 41.4709L82.7893 41.6388L82.8868 42.4179L84.0457 42.2728L84.0942 42.6604ZM63.0414 50.8759C63.0259 50.7519 62.97 50.6617 62.8737 50.6056C62.7787 50.5492 62.6133 50.501 62.3773 50.461C62.1414 50.421 61.9509 50.3674 61.8061 50.3002C61.5287 50.1709 61.3738 49.9764 61.3413 49.7167C61.3128 49.4893 61.3818 49.2904 61.5481 49.12C61.7157 48.9494 61.9474 48.8456 62.2433 48.8086C62.4397 48.784 62.6193 48.7983 62.7821 48.8514C62.9449 48.9045 63.0786 48.9927 63.1833 49.1161C63.2878 49.2382 63.3503 49.3806 63.3707 49.5434L62.8823 49.6046C62.8638 49.4573 62.8029 49.3481 62.6996 49.2771C62.5973 49.2046 62.4603 49.1791 62.2884 49.2006C62.1282 49.2206 62.0078 49.2705 61.9273 49.3501C61.848 49.4296 61.816 49.5307 61.8314 49.6534C61.8443 49.7568 61.903 49.8374 62.0073 49.8952C62.1115 49.9517 62.2775 49.9991 62.5054 50.0375C62.7331 50.0746 62.9188 50.1268 63.0624 50.1942C63.2058 50.2602 63.3153 50.3436 63.3909 50.4444C63.4663 50.5438 63.5131 50.6659 63.5312 50.8106C63.5607 51.0458 63.4937 51.2444 63.3303 51.4066C63.168 51.5673 62.9324 51.667 62.6237 51.7057C62.4195 51.7312 62.2268 51.7173 62.0456 51.6639C61.8655 51.609 61.7194 51.521 61.6071 51.3999C61.4961 51.2786 61.4296 51.1295 61.4074 50.9525L61.8977 50.8911C61.9178 51.0513 61.9863 51.1687 62.1032 51.2433C62.2202 51.3179 62.3775 51.3428 62.5751 51.3181C62.7457 51.2967 62.8693 51.2465 62.946 51.1673C63.0238 51.0867 63.0556 50.9896 63.0414 50.8759ZM65.7637 48.4073L65.9997 50.293C66.0373 50.5928 65.9708 50.8425 65.8002 51.0423C65.6309 51.2407 65.3866 51.3598 65.0675 51.3998C64.7445 51.4402 64.4773 51.3864 64.2658 51.2383C64.0542 51.089 63.9293 50.8612 63.8909 50.555L63.6552 48.6713L64.1435 48.6101L64.3798 50.4977C64.4034 50.6864 64.4693 50.8244 64.5773 50.912C64.6854 50.9995 64.8324 51.0316 65.0185 51.0083C65.3957 50.9611 65.5595 50.7385 65.5097 50.3406L65.2753 48.4685L65.7637 48.4073ZM67.5428 49.9463L66.9963 50.0147L67.1324 51.102L66.6421 51.1633L66.2889 48.3416L67.2812 48.2174C67.6067 48.1766 67.8672 48.2182 68.0625 48.342C68.2577 48.4659 68.3727 48.666 68.4073 48.9425C68.4309 49.1311 68.4048 49.2952 68.3291 49.4346C68.2545 49.5725 68.1401 49.6859 67.9859 49.7747L68.7669 50.8718L68.77 50.897L68.2448 50.9627L67.5428 49.9463ZM66.9471 49.6213L67.451 49.5582C67.6163 49.5375 67.7404 49.48 67.823 49.3857C67.9055 49.2901 67.9377 49.1699 67.9196 49.0252C67.9007 48.874 67.8428 48.7625 67.7459 48.6907C67.6503 48.6187 67.517 48.592 67.3461 48.6108L66.8287 48.6756L66.9471 49.6213ZM71.3573 50.5731L70.8669 50.6345L69.3586 48.79L69.6092 50.7919L69.1189 50.8533L68.7657 48.0316L69.256 47.9702L70.7692 49.822L70.5176 47.8123L71.0041 47.7514L71.3573 50.5731ZM73.4688 49.6415L72.3758 49.7784L72.2294 50.464L71.7197 50.5278L72.4324 47.5726L72.8723 47.5176L74.2933 50.2056L73.7817 50.2697L73.4688 49.6415ZM72.4639 49.3658L73.2818 49.2634L72.7263 48.1441L72.4639 49.3658ZM74.8975 47.2641L75.9822 49.325L76.5235 47.0605L77.1572 46.9812L77.5104 49.8029L77.022 49.8641L76.9056 48.9338L76.7983 47.6836L76.2371 49.9623L75.8864 50.0062L74.783 47.9378L74.987 49.174L75.1034 50.1042L74.615 50.1654L74.2618 47.3436L74.8975 47.2641ZM79.5834 48.264L78.4245 48.4091L78.5331 49.2773L79.8878 49.1078L79.9368 49.4992L78.0918 49.7302L77.7386 46.9084L79.57 46.6792L79.6195 47.0746L78.2784 47.2424L78.3759 48.0215L79.5349 47.8764L79.5834 48.264Z" fill="#013047"/>
<path d="M102.39 73.2286L101.231 73.3737L101.34 74.2419L102.695 74.0724L102.744 74.4639L100.899 74.6948L100.546 71.8731L102.377 71.6438L102.427 72.0392L101.085 72.207L101.183 72.9861L102.342 72.841L102.39 73.2286ZM103.674 72.9183L103.987 72.1784L104.51 72.113L103.998 73.2262L104.794 74.2072L104.275 74.2722L103.766 73.6075L103.44 74.3768L102.916 74.4423L103.446 73.2953L102.677 72.3424L103.196 72.2774L103.674 72.9183ZM106.801 72.9127C106.842 73.237 106.801 73.5053 106.678 73.7175C106.555 73.9285 106.369 74.0495 106.121 74.0805C105.891 74.1093 105.697 74.0568 105.54 73.9229L105.665 74.9171L105.194 74.9761L104.83 72.0729L105.264 72.0186L105.31 72.2293C105.428 72.0441 105.605 71.9366 105.843 71.9068C106.099 71.8748 106.311 71.9453 106.48 72.1184C106.649 72.2901 106.755 72.5452 106.798 72.8837L106.801 72.9127ZM106.327 72.9307C106.301 72.7214 106.238 72.5607 106.139 72.4484C106.041 72.3361 105.914 72.2896 105.759 72.309C105.567 72.3331 105.439 72.4298 105.374 72.5993L105.491 73.5295C105.597 73.6816 105.746 73.7455 105.94 73.7213C106.09 73.7025 106.199 73.6278 106.268 73.4971C106.338 73.365 106.358 73.1762 106.327 72.9307ZM108.258 73.813C107.96 73.8503 107.706 73.787 107.497 73.6229C107.288 73.4574 107.164 73.2183 107.125 72.9057L107.118 72.8475C107.092 72.6382 107.108 72.4465 107.168 72.2724C107.229 72.0968 107.326 71.954 107.461 71.844C107.595 71.734 107.752 71.6678 107.932 71.6453C108.218 71.6096 108.449 71.6731 108.627 71.8359C108.806 71.9985 108.917 72.2464 108.958 72.5798L108.982 72.7697L107.612 72.9412C107.648 73.1125 107.722 73.2423 107.836 73.3305C107.951 73.4185 108.085 73.4528 108.239 73.4336C108.454 73.4066 108.619 73.2974 108.733 73.106L109.017 73.3165C108.949 73.4523 108.849 73.5639 108.717 73.6513C108.586 73.7372 108.433 73.7911 108.258 73.813ZM107.977 72.0235C107.848 72.0396 107.749 72.098 107.68 72.1984C107.613 72.2987 107.578 72.431 107.577 72.5953L108.474 72.4829L108.469 72.4481C108.439 72.2917 108.383 72.1781 108.299 72.1072C108.215 72.0351 108.108 72.0071 107.977 72.0235ZM109.241 72.57C109.2 72.247 109.243 71.9786 109.368 71.7647C109.493 71.5496 109.682 71.4263 109.934 71.3947C110.156 71.3669 110.345 71.422 110.502 71.5599L110.367 70.4862L110.838 70.4273L111.211 73.404L110.785 73.4574L110.734 73.2432C110.615 73.4314 110.437 73.5402 110.202 73.5697C109.957 73.6004 109.745 73.5264 109.568 73.3479C109.392 73.1691 109.283 72.9098 109.241 72.57ZM109.717 72.5518C109.743 72.765 109.805 72.9265 109.901 73.0365C109.999 73.145 110.123 73.1898 110.274 73.1709C110.467 73.1468 110.597 73.0432 110.665 72.8603L110.553 71.9649C110.445 71.8078 110.295 71.7413 110.102 71.7654C109.95 71.7844 109.84 71.8599 109.772 71.9917C109.705 72.1222 109.686 72.3089 109.717 72.5518ZM112.203 73.2798L111.732 73.3388L111.47 71.2419L111.941 71.1829L112.203 73.2798ZM111.373 70.7009C111.364 70.6286 111.379 70.5657 111.418 70.5122C111.458 70.4586 111.521 70.4264 111.607 70.4157C111.692 70.4051 111.761 70.4207 111.813 70.4627C111.866 70.5047 111.896 70.5619 111.906 70.6342C111.914 70.7053 111.899 70.7676 111.858 70.8212C111.817 70.8736 111.754 70.9051 111.669 70.9157C111.584 70.9264 111.515 70.9114 111.463 70.8707C111.412 70.8286 111.381 70.772 111.373 70.7009ZM112.982 70.5349L113.045 71.0446L113.416 70.9983L113.459 71.3471L113.089 71.3935L113.236 72.564C113.246 72.6441 113.268 72.7003 113.304 72.7326C113.341 72.7635 113.4 72.7738 113.481 72.7636C113.535 72.7568 113.589 72.7435 113.643 72.7236L113.689 73.088C113.585 73.1311 113.484 73.1589 113.384 73.1713C113.023 73.2166 112.817 73.0396 112.767 72.6404L112.618 71.4524L112.273 71.4956L112.23 71.1468L112.574 71.1036L112.511 70.5939L112.982 70.5349ZM114.54 72.9873L114.07 73.0462L113.807 70.9493L114.278 70.8904L114.54 72.9873ZM113.71 70.4084C113.701 70.336 113.716 70.2731 113.755 70.2196C113.796 70.166 113.859 70.1339 113.944 70.1232C114.029 70.1125 114.098 70.1282 114.15 70.1702C114.203 70.2121 114.234 70.2693 114.243 70.3417C114.252 70.4127 114.236 70.4751 114.195 70.5287C114.155 70.581 114.092 70.6125 114.006 70.6232C113.921 70.6339 113.852 70.6189 113.8 70.5782C113.749 70.536 113.719 70.4794 113.71 70.4084ZM114.833 71.8661C114.807 71.6606 114.825 71.4708 114.886 71.2965C114.947 71.121 115.045 70.98 115.181 70.8737C115.317 70.7661 115.481 70.7004 115.672 70.6765C115.955 70.641 116.196 70.7034 116.395 70.8636C116.594 71.0236 116.72 71.2533 116.772 71.5525L116.788 71.6627C116.814 71.8695 116.797 72.0592 116.737 72.232C116.679 72.4047 116.581 72.5449 116.443 72.6526C116.307 72.7602 116.142 72.8262 115.948 72.8504C115.653 72.8874 115.403 72.8189 115.2 72.6449C114.999 72.4693 114.877 72.2175 114.836 71.8893L114.833 71.8661ZM115.309 71.8478C115.336 72.0636 115.402 72.2273 115.506 72.3388C115.611 72.4491 115.742 72.4943 115.901 72.4744C116.06 72.4545 116.176 72.3771 116.248 72.2421C116.322 72.1069 116.344 71.9198 116.314 71.6807C116.287 71.4689 116.22 71.3066 116.113 71.1941C116.007 71.0814 115.876 71.0348 115.72 71.0544C115.566 71.0736 115.452 71.1503 115.376 71.2843C115.301 71.4171 115.279 71.6049 115.309 71.8478ZM117.489 70.4884L117.533 70.729C117.665 70.5222 117.857 70.4031 118.108 70.3715C118.545 70.3169 118.799 70.5391 118.869 71.0381L119.042 72.4238L118.572 72.4827L118.401 71.1242C118.385 70.9911 118.343 70.8965 118.277 70.8405C118.212 70.783 118.115 70.7625 117.984 70.7788C117.794 70.8026 117.664 70.9062 117.592 71.0897L117.779 72.5819L117.308 72.6409L117.045 70.544L117.489 70.4884ZM101.52 79.6561L101.167 76.8343L102 76.73C102.249 76.6988 102.477 76.7267 102.684 76.8137C102.891 76.9006 103.061 77.0395 103.192 77.2303C103.324 77.4212 103.406 77.6484 103.439 77.912L103.457 78.0535C103.49 78.3209 103.466 78.5628 103.384 78.779C103.304 78.9951 103.172 79.1705 102.988 79.305C102.805 79.4394 102.586 79.5226 102.332 79.5544L101.52 79.6561ZM101.706 77.1683L101.961 79.2032L102.281 79.1632C102.538 79.131 102.725 79.0262 102.842 78.8489C102.96 78.6701 103.001 78.43 102.966 78.1287L102.947 77.9717C102.908 77.6655 102.813 77.4399 102.659 77.2951C102.506 77.1503 102.303 77.0937 102.049 77.1254L101.706 77.1683ZM105.32 79.1804C105.295 79.1429 105.268 79.0799 105.242 78.9914C105.111 79.1665 104.938 79.2677 104.72 79.2948C104.51 79.3212 104.331 79.2826 104.182 79.1791C104.034 79.0756 103.949 78.9354 103.927 78.7584C103.899 78.5348 103.96 78.3533 104.111 78.2137C104.262 78.0727 104.493 77.9829 104.801 77.9442L105.09 77.9081L105.073 77.7705C105.059 77.662 105.018 77.5792 104.949 77.5222C104.88 77.4639 104.784 77.4425 104.66 77.458C104.553 77.4715 104.468 77.5096 104.406 77.5724C104.345 77.634 104.319 77.7061 104.329 77.7888L103.858 77.8477C103.844 77.7327 103.869 77.6207 103.932 77.5117C103.996 77.4014 104.089 77.3096 104.213 77.2365C104.338 77.1631 104.481 77.1163 104.642 77.0961C104.888 77.0654 105.091 77.1029 105.253 77.2087C105.414 77.3131 105.511 77.4769 105.542 77.6999L105.661 78.6457C105.684 78.8343 105.73 78.9815 105.797 79.0873L105.801 79.1202L105.32 79.1804ZM104.76 78.906C104.853 78.8943 104.938 78.8608 105.014 78.8054C105.091 78.7498 105.145 78.6814 105.177 78.6L105.127 78.2046L104.873 78.2364C104.699 78.2582 104.572 78.305 104.491 78.3767C104.411 78.4484 104.378 78.5398 104.392 78.651C104.403 78.7414 104.442 78.81 104.508 78.8569C104.576 78.9022 104.66 78.9186 104.76 78.906ZM106.479 76.3879L106.542 76.8976L106.912 76.8513L106.956 77.2001L106.586 77.2465L106.733 78.417C106.743 78.4971 106.765 78.5533 106.801 78.5856C106.838 78.6165 106.897 78.6268 106.978 78.6166C107.032 78.6098 107.086 78.5965 107.14 78.5766L107.186 78.941C107.082 78.9841 106.981 79.0119 106.881 79.0243C106.52 79.0696 106.314 78.8927 106.264 78.4934L106.115 77.3054L105.77 77.3486L105.726 76.9998L106.071 76.9566L106.008 76.4469L106.479 76.3879ZM108.465 78.8262C108.166 78.8635 107.912 78.8002 107.703 78.6361C107.494 78.4706 107.371 78.2315 107.332 77.9189L107.324 77.8607C107.298 77.6514 107.315 77.4597 107.374 77.2856C107.435 77.11 107.533 76.9672 107.667 76.8572C107.802 76.7472 107.959 76.681 108.138 76.6585C108.424 76.6228 108.655 76.6863 108.833 76.8491C109.012 77.0117 109.123 77.2596 109.165 77.593L109.188 77.7829L107.818 77.9544C107.854 78.1257 107.929 78.2555 108.042 78.3437C108.157 78.4317 108.291 78.466 108.445 78.4468C108.661 78.4198 108.825 78.3106 108.939 78.1192L109.223 78.3297C109.155 78.4655 109.055 78.5771 108.923 78.6645C108.792 78.7504 108.639 78.8043 108.465 78.8262ZM108.184 77.0367C108.054 77.0528 107.955 77.1112 107.887 77.2116C107.819 77.3119 107.785 77.4442 107.783 77.6085L108.68 77.4961L108.676 77.4613C108.646 77.3049 108.589 77.1913 108.505 77.1204C108.421 77.0483 108.314 77.0203 108.184 77.0367ZM109.89 78.1045C109.978 78.0935 110.049 78.1102 110.103 78.1546C110.157 78.1977 110.189 78.2567 110.198 78.3317C110.207 78.4053 110.191 78.4697 110.149 78.5248C110.107 78.5785 110.043 78.6109 109.955 78.6219C109.871 78.6324 109.801 78.6169 109.746 78.5752C109.691 78.5336 109.659 78.4753 109.649 78.4003C109.64 78.3254 109.656 78.2604 109.698 78.2053C109.739 78.1489 109.803 78.1153 109.89 78.1045ZM109.684 76.4591C109.772 76.4481 109.843 76.4648 109.897 76.5092C109.951 76.5523 109.983 76.6114 109.992 76.6863C110.001 76.7599 109.985 76.8243 109.943 76.8794C109.902 76.9332 109.837 76.9656 109.749 76.9766C109.665 76.9871 109.595 76.9715 109.54 76.9298C109.485 76.8882 109.453 76.8299 109.444 76.755C109.434 76.68 109.45 76.615 109.492 76.5599C109.533 76.5036 109.597 76.47 109.684 76.4591ZM112.383 77.0897C112.434 77.4954 112.396 77.8112 112.269 78.037C112.144 78.2613 111.926 78.3929 111.616 78.4317C111.311 78.4699 111.068 78.3985 110.888 78.2177C110.709 78.0354 110.593 77.7474 110.54 77.3539L110.479 76.8655C110.428 76.4598 110.466 76.1461 110.591 75.9243C110.719 75.7024 110.938 75.5719 111.249 75.533C111.558 75.4943 111.8 75.5644 111.976 75.7431C112.153 75.9217 112.269 76.2078 112.322 76.6014L112.383 77.0897ZM111.846 76.6216C111.813 76.3567 111.752 76.1674 111.665 76.0537C111.577 75.9388 111.454 75.8911 111.296 75.9109C111.143 75.9301 111.037 76.0031 110.979 76.1297C110.922 76.255 110.906 76.442 110.933 76.6905L111.013 77.33C111.046 77.5936 111.108 77.7854 111.198 77.9054C111.287 78.0254 111.411 78.0755 111.569 78.0558C111.72 78.0368 111.824 77.9634 111.882 77.8355C111.939 77.7063 111.954 77.5142 111.926 77.2592L111.846 76.6216ZM114.639 76.8074C114.69 77.2131 114.652 77.5288 114.525 77.7546C114.4 77.979 114.182 78.1106 113.872 78.1494C113.567 78.1875 113.324 78.1162 113.144 77.9353C112.965 77.753 112.849 77.4651 112.796 77.0715L112.735 76.5831C112.684 76.1774 112.722 75.8637 112.847 75.642C112.974 75.42 113.194 75.2896 113.505 75.2506C113.814 75.2119 114.056 75.282 114.232 75.4608C114.409 75.6393 114.524 75.9254 114.578 76.319L114.639 76.8074ZM114.102 76.3392C114.069 76.0743 114.008 75.8851 113.921 75.7714C113.833 75.6564 113.71 75.6088 113.552 75.6285C113.399 75.6478 113.293 75.7207 113.235 75.8473C113.177 75.9727 113.162 76.1596 113.189 76.4081L113.269 77.0477C113.302 77.3113 113.364 77.503 113.454 77.623C113.543 77.743 113.667 77.7931 113.825 77.7734C113.976 77.7545 114.08 77.6811 114.138 77.5531C114.195 77.4239 114.21 77.2318 114.182 76.9768L114.102 76.3392ZM115.397 78.1651L115.027 78.2114L115.754 75.0085L116.124 74.9621L115.397 78.1651ZM118.464 76.3285C118.515 76.7342 118.477 77.05 118.351 77.2758C118.225 77.5001 118.007 77.6317 117.697 77.6705C117.392 77.7087 117.15 77.6373 116.97 77.4565C116.791 77.2742 116.675 76.9862 116.622 76.5927L116.56 76.1043C116.51 75.6986 116.547 75.3849 116.673 75.1631C116.8 74.9412 117.019 74.8107 117.331 74.7717C117.639 74.7331 117.882 74.8032 118.058 74.9819C118.235 75.1605 118.35 75.4466 118.403 75.8402L118.464 76.3285ZM117.927 75.8603C117.894 75.5955 117.834 75.4062 117.746 75.2925C117.658 75.1776 117.535 75.1299 117.378 75.1497C117.224 75.1689 117.118 75.2418 117.061 75.3685C117.003 75.4938 116.988 75.6807 117.015 75.9293L117.095 76.5688C117.128 76.8324 117.189 77.0242 117.279 77.1442C117.369 77.2641 117.493 77.3143 117.65 77.2945C117.801 77.2756 117.906 77.2022 117.963 77.0743C118.021 76.9451 118.035 76.753 118.007 76.4979L117.927 75.8603ZM120.72 76.0462C120.771 76.4519 120.733 76.7676 120.606 76.9934C120.481 77.2178 120.263 77.3493 119.953 77.3882C119.648 77.4263 119.406 77.355 119.226 77.1741C119.047 76.9918 118.931 76.7039 118.877 76.3103L118.816 75.8219C118.765 75.4162 118.803 75.1025 118.929 74.8807C119.056 74.6588 119.275 74.5284 119.586 74.4894C119.895 74.4507 120.138 74.5208 120.313 74.6995C120.491 74.8781 120.606 75.1642 120.659 75.5578L120.72 76.0462ZM120.183 75.578C120.15 75.3131 120.09 75.1239 120.002 75.0102C119.914 74.8952 119.791 74.8476 119.634 74.8673C119.48 74.8865 119.374 74.9595 119.317 75.0861C119.259 75.2114 119.244 75.3984 119.271 75.6469L119.351 76.2865C119.384 76.55 119.445 76.7418 119.535 76.8618C119.625 76.9818 119.748 77.0319 119.906 77.0122C120.057 76.9933 120.162 76.9198 120.219 76.7919C120.276 76.6627 120.291 76.4706 120.263 76.2156L120.183 75.578ZM121.479 77.4039L121.109 77.4502L121.835 74.2472L122.206 74.2009L121.479 77.4039ZM124.546 75.5673C124.597 75.973 124.559 76.2888 124.432 76.5146C124.307 76.7389 124.089 76.8705 123.779 76.9093C123.474 76.9475 123.231 76.8761 123.051 76.6953C122.872 76.513 122.756 76.225 122.703 75.8314L122.642 75.3431C122.591 74.9374 122.629 74.6237 122.754 74.4019C122.881 74.18 123.101 74.0495 123.412 74.0105C123.721 73.9719 123.963 74.0419 124.139 74.2207C124.316 74.3993 124.431 74.6854 124.485 75.0789L124.546 75.5673ZM124.009 75.0991C123.976 74.8343 123.915 74.645 123.828 74.5313C123.74 74.4163 123.617 74.3687 123.459 74.3884C123.306 74.4077 123.2 74.4806 123.142 74.6073C123.084 74.7326 123.069 74.9195 123.096 75.1681L123.176 75.8076C123.209 76.0712 123.271 76.263 123.361 76.383C123.45 76.5029 123.574 76.5531 123.732 76.5333C123.883 76.5144 123.987 76.441 124.045 76.3131C124.102 76.1839 124.117 75.9917 124.089 75.7367L124.009 75.0991ZM126.802 75.285C126.852 75.6907 126.815 76.0064 126.688 76.2322C126.562 76.4565 126.345 76.5881 126.035 76.6269C125.73 76.6651 125.487 76.5938 125.307 76.4129C125.128 76.2306 125.012 75.9427 124.959 75.5491L124.898 75.0607C124.847 74.655 124.884 74.3413 125.01 74.1195C125.137 73.8976 125.356 73.7672 125.668 73.7282C125.977 73.6895 126.219 73.7596 126.395 73.9383C126.572 74.1169 126.687 74.403 126.74 74.7966L126.802 75.285ZM126.265 74.8168C126.232 74.5519 126.171 74.3626 126.083 74.249C125.996 74.134 125.873 74.0864 125.715 74.1061C125.561 74.1253 125.456 74.1983 125.398 74.3249C125.34 74.4502 125.325 74.6372 125.352 74.8857L125.432 75.5253C125.465 75.7888 125.527 75.9806 125.616 76.1006C125.706 76.2206 125.83 76.2707 125.988 76.251C126.139 76.232 126.243 76.1586 126.301 76.0307C126.358 75.9015 126.373 75.7094 126.345 75.4544L126.265 74.8168Z" fill="#013047"/>
<path d="M22.4236 79.1533L21.2217 79.3038L22.3016 87.9313L23.5035 87.7808L22.4236 79.1533Z" fill="#013047"/>
<path d="M24.7492 78.8612L22.9062 79.0919L23.9862 87.7194L25.8291 87.4887L24.7492 78.8612Z" fill="#013047"/>
<path d="M25.7105 78.7408L25.1572 78.8101L26.2371 87.4376L26.7904 87.3683L25.7105 78.7408Z" fill="#013047"/>
<path d="M26.9085 78.5909L26.3555 78.6601L27.4354 87.2876L27.9885 87.2184L26.9085 78.5909Z" fill="#013047"/>
<path d="M28.7156 78.3646L27.5137 78.5151L28.5936 87.1426L29.7955 86.9921L28.7156 78.3646Z" fill="#013047"/>
<path d="M31.0406 78.0737L29.1963 78.3045L30.2762 86.932L32.1205 86.7012L31.0406 78.0737Z" fill="#013047"/>
<path d="M32.0006 77.9534L31.4473 78.0227L32.5272 86.6502L33.0805 86.581L32.0006 77.9534Z" fill="#013047"/>
<path d="M33.1996 77.8034L32.6465 77.8726L33.7264 86.5001L34.2795 86.4309L33.1996 77.8034Z" fill="#013047"/>
<path d="M39.5713 77.0059L38.3691 77.1564L39.449 85.7839L40.6512 85.6334L39.5713 77.0059Z" fill="#013047"/>
<path d="M37.8876 77.2166L36.0439 77.4473L37.1238 86.0748L38.9675 85.8441L37.8876 77.2166Z" fill="#013047"/>
<path d="M35.6361 77.4985L35.083 77.5677L36.1629 86.1952L36.716 86.126L35.6361 77.4985Z" fill="#013047"/>
<path d="M34.4381 77.6483L33.8848 77.7176L34.9647 86.3451L35.518 86.2759L34.4381 77.6483Z" fill="#013047"/>
<path d="M41.3985 76.7779L40.1963 76.9283L41.2762 85.5559L42.4784 85.4054L41.3985 76.7779Z" fill="#013047"/>
<path d="M43.723 76.4862L41.8789 76.717L42.9588 85.3446L44.8029 85.1137L43.723 76.4862Z" fill="#013047"/>
<path d="M44.6849 76.3659L44.1318 76.4351L45.2117 85.0626L45.7648 84.9934L44.6849 76.3659Z" fill="#013047"/>
<path d="M45.8824 76.2159L45.3291 76.2852L46.409 84.9127L46.9623 84.8434L45.8824 76.2159Z" fill="#013047"/>
<path d="M47.69 75.9897L46.4873 76.1402L47.5672 84.7677L48.7699 84.6172L47.69 75.9897Z" fill="#013047"/>
<path d="M50.0128 75.6989L48.1699 75.9296L49.2498 84.5571L51.0927 84.3264L50.0128 75.6989Z" fill="#013047"/>
<path d="M50.9762 75.5784L50.4229 75.6476L51.5028 84.2752L52.0561 84.2059L50.9762 75.5784Z" fill="#013047"/>
<path d="M52.1742 75.4284L51.6211 75.4976L52.701 84.1251L53.2541 84.0559L52.1742 75.4284Z" fill="#013047"/>
<path d="M54.61 75.1235L54.0566 75.1927L55.1365 83.8203L55.6899 83.751L54.61 75.1235Z" fill="#013047"/>
<path d="M53.412 75.2734L52.8594 75.3426L53.9393 83.9701L54.4919 83.9009L53.412 75.2734Z" fill="#013047"/>
<path d="M36.8753 72.016C47.1132 70.7345 54.3739 61.3962 53.0924 51.1583C51.8109 40.9203 42.4726 33.6597 32.2347 34.9412C21.9968 36.2226 14.7361 45.561 16.0176 55.7989C17.2991 66.0368 26.6374 73.2975 36.8753 72.016Z" fill="#F1E8E8"/>
<path d="M37.868 61.6742L33.3555 62.2391L33.9204 66.7525L38.4329 66.1877L37.868 61.6742Z" fill="#EC7665"/>
<path d="M41.3086 50.659C41.3086 50.659 41.9579 49.4719 43.7266 49.8031C45.4966 50.1348 45.1384 55.7796 42.0469 56.6499L41.3086 50.659Z" fill="#FAB187"/>
<path d="M42.195 52.0181C42.195 52.0181 42.4713 50.9637 43.3203 50.898C44.1691 50.8321 44.195 53.3193 42.5574 54.913L42.195 52.0181Z" fill="#EC7665"/>
<path d="M26.923 52.4597C26.923 52.4597 26.0012 51.4693 24.3675 52.2263C22.735 52.9839 24.4734 58.3663 27.6836 58.4478L26.923 52.4597Z" fill="#FAB187"/>
<path d="M26.3983 53.9954C26.3983 53.9954 25.8707 53.0416 25.0318 53.1873C24.1926 53.3327 24.7813 55.7494 26.7607 56.8903L26.3983 53.9954Z" fill="#EC7665"/>
<path d="M32.8476 39.8752C30.2722 40.1976 28.1088 41.675 26.8146 43.7217C26.8146 43.7217 26.5685 52.4654 28.341 57.5333C29.7512 61.5629 33.472 63.4339 35.3255 63.4446C35.4803 63.4345 35.6358 63.4197 35.7922 63.4001C40.3599 62.8284 43.63 58.6233 43.0581 54.055L42.1927 47.1407C41.621 42.573 37.4153 39.3035 32.8476 39.8752Z" fill="#FAB187"/>
<path d="M26.4469 56.1341C26.9992 60.5464 30.9404 63.7459 35.3251 63.4445C33.4715 63.4338 29.7509 61.5625 28.3405 57.5332C26.5681 52.4653 26.8141 43.7216 26.8141 43.7216C25.8132 45.3048 25.3321 47.2278 25.5814 49.2197L26.4469 56.1341Z" fill="#EC7665"/>
<path d="M28.5038 45.6296C28.5038 45.6296 34.8836 48.8556 39.7274 45.1254C39.7274 45.1254 28.3414 42.6889 28.4503 44.0061C28.5591 45.3221 28.5038 45.6296 28.5038 45.6296Z" fill="#EC7665"/>
<path d="M27.401 72.2025C27.9069 71.5415 28.2451 71.15 28.2451 71.15C28.3679 71.3913 28.4572 71.6991 28.519 72.0626L29.013 72.0007C30.0067 70.7585 30.7502 70.0747 30.7688 70.0572L29.4307 68.577L28.0955 67.0908C27.952 67.2197 25.7693 69.2122 23.6798 72.6681L27.4009 72.2023L27.401 72.2025Z" fill="#20B99C"/>
<path d="M28.1827 72.1047L28.0868 71.3386C27.9405 71.5154 27.699 71.8115 27.4006 72.2026L28.1827 72.1047Z" fill="#00998A"/>
<path d="M44.9857 70.0015C44.9555 69.6319 44.966 69.3081 45.0258 69.0427C45.0258 69.0427 45.4543 69.3405 46.1121 69.8605L49.8316 69.3949C46.9523 66.5563 44.3416 65.1614 44.1708 65.0718L43.2429 66.8402L42.3111 68.6052C42.3334 68.6175 43.2262 69.0989 44.4996 70.0621L44.9857 70.0012L44.9857 70.0015Z" fill="#20B99C"/>
<path d="M46.1128 69.8605C45.7235 69.5531 45.4135 69.3216 45.2266 69.1865L45.3233 69.9593L46.1128 69.8605Z" fill="#00998A"/>
<path d="M41.5742 43.4397L41.0892 43.7304C40.1832 42.6212 38.1972 43.1408 38.1972 43.1408C38.1959 44.7596 40.3221 45.7851 40.3221 45.7851L40.8309 48.8256L42.6967 51.078C42.6952 51.0562 42.6937 51.0344 42.6921 51.0127L42.7088 51.0441C44.5111 44.7843 41.5742 43.4397 41.5742 43.4397Z" fill="#07232C"/>
<path d="M25.3664 45.4685L25.9081 45.6307C26.5128 44.3323 28.5655 44.3465 28.5655 44.3465C28.9659 45.915 27.158 47.4329 27.158 47.4329L27.4143 50.505L26.1612 53.1478C26.1573 53.1263 26.1534 53.1048 26.1496 53.0833L26.1411 53.1179C22.8518 47.4954 25.3664 45.4685 25.3664 45.4685Z" fill="#07232C"/>
<path d="M26.526 42.2894C26.4071 42.836 26.9013 43.3241 27.4447 43.1907C27.8721 43.0852 28.4252 43.0165 29.0939 43.0709C30.8256 43.2114 33.1335 45.5679 38.0674 44.0566C39.545 43.6034 40.7091 42.8449 41.6185 41.9726C41.4827 40.001 40.4903 36.7356 35.4071 36.6951C33.605 36.9011 31.559 37.2658 29.7501 37.8981C29.6905 37.9221 28.5268 38.3967 27.1637 39.288C27.1694 39.3656 27.1693 39.4474 27.1603 39.5342C27.0996 40.1848 26.7344 41.3304 26.526 42.2894Z" fill="#013047"/>
<path d="M38.0668 44.0566C33.133 45.5679 30.825 43.2114 29.0934 43.0709C28.428 43.0165 27.8772 43.0845 27.4508 43.1887C26.9039 43.3223 26.4059 42.8397 26.5255 42.2899C26.7338 41.3301 27.0991 40.1848 27.1598 39.534C27.1685 39.4474 27.1687 39.3654 27.1632 39.2877C26.8366 39.501 26.5445 39.8178 26.2263 40.1105C25.9817 40.3355 25.7524 40.5784 25.5604 40.8499C25.0166 41.6178 24.7241 42.4823 24.8785 43.6008C25.6497 49.194 26.1339 45.2659 28.5139 44.6327C28.5139 44.6327 32.091 47.3148 37.7037 45.7174C39.2367 45.2816 40.5345 44.4634 41.574 43.4398C41.574 43.4398 41.6767 42.8279 41.6181 41.9729C40.7086 42.8449 39.5445 43.6034 38.0668 44.0566Z" fill="#07232C"/>
<path d="M43.3522 64.9388L38.3554 65.5643C38.3554 65.5643 38.2266 66.9783 36.333 67.2153C34.4394 67.4523 33.8301 66.1307 33.8301 66.1307L28.8565 66.7532C28.0079 66.8595 27.6073 67.5108 27.6988 68.2415L28.3775 73.6644L45.5164 71.4856L44.8417 66.0955C44.75 65.365 44.1524 64.8387 43.3522 64.9388Z" fill="#20B99C"/>
<path d="M36.3332 67.2147C38.2271 66.9777 38.3556 65.5637 38.3556 65.5637L33.8301 66.1302C33.8303 66.1302 34.4397 67.4518 36.3332 67.2147Z" fill="#EC7665"/>
<path d="M133.81 1.02213L126.449 6.9118L135.028 5.83798L134.621 2.58877C134.544 1.96661 134.244 1.42252 133.81 1.02213Z" fill="#01A291"/>
<path d="M113.246 17.4772L136.127 14.6133L135.339 8.31942L122.716 9.89946L113.246 17.4772Z" fill="#01A291"/>
<path d="M1.07324 22.6049L1.38386 25.0864L122.715 9.89948L126.448 6.91174L1.07324 22.6049Z" fill="white"/>
<path d="M122.715 9.89951L135.338 8.31947L135.028 5.83793L126.448 6.91177L122.715 9.89951Z" fill="#F1E8E8"/>
<path d="M120.899 28.9538C117.148 29.4232 114.48 32.856 114.949 36.6069C115.418 40.3566 118.851 43.0266 122.602 42.5572C126.352 42.0877 129.021 38.654 128.552 34.9042C128.082 31.1533 124.649 28.4844 120.899 28.9538Z" fill="#BDBBBB"/>
<path d="M120.439 25.2779C114.652 26.0021 110.549 31.2806 111.273 37.0666C111.998 42.8527 117.275 46.9557 123.061 46.2315C128.847 45.5073 132.952 40.2302 132.227 34.4439C131.503 28.6575 126.225 24.5536 120.439 25.2779ZM122.783 44.0094C118.231 44.5792 114.065 41.3397 113.495 36.7885C112.925 32.2362 116.165 28.0697 120.717 27.5C125.269 26.9302 129.435 30.1698 130.005 34.7221C130.574 39.2734 127.336 43.4396 122.783 44.0094Z" fill="#BDBBBB"/>
<path d="M122.973 48.4408C122.214 48.5138 121.446 48.5195 120.692 48.4568L120.773 47.4835C121.469 47.541 122.178 47.5368 122.879 47.4686L122.973 48.4408ZM125.7 47.874L125.398 46.945C126.064 46.7287 126.715 46.4484 127.332 46.1145L127.798 46.9731C127.128 47.3356 126.423 47.6387 125.7 47.874ZM117.956 47.9204C117.232 47.6919 116.523 47.3967 115.851 47.0428L116.306 46.1788C116.926 46.5058 117.58 46.7779 118.249 46.9888L117.956 47.9204ZM130.086 45.3861L129.445 44.6489C129.973 44.1896 130.464 43.6786 130.903 43.1299L131.665 43.7396C131.189 44.3335 130.658 44.8878 130.086 45.3861ZM113.542 45.4831C112.962 44.9913 112.424 44.445 111.942 43.8579L112.695 43.2373C113.142 43.7793 113.639 44.2847 114.174 44.7382L113.542 45.4831ZM133.158 41.3871L132.282 40.9582C132.592 40.3261 132.845 39.6644 133.036 38.9907L133.976 39.257C133.769 39.987 133.494 40.7033 133.158 41.3871ZM110.419 41.5233C110.077 40.8459 109.795 40.1318 109.58 39.4014L110.517 39.1258C110.715 39.7994 110.975 40.4583 111.291 41.0834L110.419 41.5233ZM134.433 36.5069L133.459 36.4544C133.496 35.7571 133.471 35.0493 133.383 34.3491L134.353 34.2277C134.447 34.9859 134.474 35.7525 134.433 36.5069ZM110.065 36.5925L109.09 36.6592C109.039 35.8989 109.055 35.1316 109.14 34.3799L110.11 34.4886C110.032 35.1827 110.017 35.8911 110.065 36.5925ZM133.167 33.132C133.007 32.4469 132.785 31.7751 132.506 31.1325L133.402 30.7442C133.704 31.4393 133.945 32.1688 134.118 32.9103L133.167 33.132ZM110.677 31.9801L109.755 31.6597C110.003 30.9419 110.319 30.2421 110.693 29.5803L111.543 30.0599C111.198 30.671 110.907 31.3169 110.677 31.9801ZM131.228 28.9015C130.814 28.3361 130.347 27.8035 129.838 27.3191L130.511 26.6118C131.063 27.1359 131.569 27.712 132.017 28.3253L131.228 28.9015ZM113.043 27.9692L112.317 27.3167C112.825 26.7509 113.387 26.2279 113.988 25.7629L114.586 26.5343C114.032 26.9645 113.513 27.4468 113.043 27.9692ZM127.791 25.7602C127.19 25.398 126.552 25.0886 125.897 24.8401L126.242 23.9274C126.953 24.1958 127.643 24.5313 128.295 24.9239L127.791 25.7602ZM116.779 25.1927L116.365 24.3093C117.051 23.9874 117.773 23.7255 118.509 23.5308L118.758 24.4756C118.079 24.6543 117.412 24.8962 116.779 25.1927ZM123.406 24.2003C122.713 24.1026 122.006 24.0669 121.302 24.0952L121.264 23.1192C122.025 23.0891 122.792 23.128 123.542 23.234L123.406 24.2003Z" fill="#BDBBBB"/>
</svg>
