<svg width="21" height="25" viewBox="0 0 21 25" fill="none" xmlns="http://www.w3.org/2000/svg">
<path d="M10.5561 0C10.9585 0 11.2847 0.326239 11.2847 0.728646V2.6717C11.2847 3.07413 10.9585 3.40035 10.5561 3.40035C10.1536 3.40035 9.82743 3.07413 9.82743 2.6717V0.728646C9.82743 0.326239 10.1536 0 10.5561 0ZM17.4251 2.84627C17.6116 2.84627 17.7989 2.91651 17.9412 3.05879C18.2257 3.34333 18.2257 3.80653 17.9412 4.09104L16.5674 5.46484C16.2828 5.74941 15.8197 5.74938 15.5352 5.46484C15.2506 5.18028 15.2506 4.71716 15.5352 4.4326L16.9089 3.05879C17.0512 2.91651 17.2386 2.84627 17.4251 2.84627ZM3.68708 2.84627C3.87354 2.84627 4.0609 2.91651 4.20321 3.05879L5.57699 4.4326C5.86156 4.71716 5.86156 5.18028 5.57699 5.46484C5.29246 5.74938 4.82931 5.74941 4.54475 5.46484L3.17096 4.09104C2.88642 3.80653 2.88642 3.34333 3.17096 3.05879C3.31324 2.91651 3.50057 2.84627 3.68708 2.84627ZM10.5561 4.37188C13.8949 4.37188 17.1139 6.97004 17.1139 10.6489C17.1139 12.9394 16.2066 14.4237 15.3985 15.5672C14.5905 16.7107 13.9564 17.4854 13.9564 18.7019V21.6165C13.9564 22.5741 13.1606 23.3167 12.2562 23.3167H12.2334C12.1137 24.1341 11.4033 24.774 10.556 24.774C9.70876 24.774 8.99833 24.1341 8.87864 23.3167H8.8558C7.95148 23.3167 7.15563 22.5741 7.15563 21.6165V18.7019C7.15563 17.4854 6.52159 16.7107 5.71352 15.5672C4.90545 14.4237 3.99817 12.9394 3.99817 10.6489C3.99826 6.97004 7.2172 4.37188 10.5561 4.37188ZM10.5561 5.82917C7.97096 5.82917 5.45555 7.82704 5.45555 10.6489C5.45555 12.5757 6.127 13.6342 6.89767 14.7247C7.55473 15.6546 8.33558 16.6306 8.5523 17.9733H12.5599C12.7766 16.6306 13.5574 15.6546 14.2145 14.7247C14.9851 13.6342 15.6566 12.5757 15.6566 10.6489C15.6566 7.82704 13.1412 5.82917 10.5561 5.82917ZM11.7022 6.55781C11.8059 6.55407 11.9167 6.56811 12.0285 6.59576C13.6094 7.19186 14.7928 8.58419 15.0949 10.2845C15.1606 10.6621 14.8805 11.069 14.5029 11.1346C14.1253 11.2002 13.7183 10.9126 13.6528 10.535C13.4412 9.34384 12.6165 8.37072 11.5124 7.95438C11.1959 7.83669 10.9904 7.4748 11.0494 7.14225C11.137 6.7344 11.3911 6.56901 11.7022 6.55781ZM20.2714 9.71528C20.6738 9.71528 21 10.0415 21 10.4439C21 10.8463 20.6738 11.1726 20.2714 11.1726H18.3283C17.9259 11.1726 17.5997 10.8463 17.5997 10.4439C17.5997 10.0415 17.9259 9.71528 18.3283 9.71528H20.2714ZM2.78385 9.71528C3.18628 9.71528 3.5125 10.0415 3.5125 10.4439C3.5125 10.8464 3.18628 11.1726 2.78385 11.1726H0.840797C0.438389 11.1726 0.11215 10.8464 0.11215 10.4439C0.11215 10.0415 0.438389 9.71528 0.840797 9.71528H2.78385ZM12.4991 19.4306H8.61302V19.9163H12.4991V19.4306ZM12.4991 21.3736H8.61302V21.6165C8.61302 21.7753 8.73502 21.8594 8.8559 21.8594H12.2562C12.3771 21.8594 12.4991 21.7753 12.4991 21.6165V21.3736Z" fill="white"/>
</svg>
