<svg width="32" height="32" viewBox="0 0 32 32" fill="none" xmlns="http://www.w3.org/2000/svg">
<rect opacity="0.1" width="32" height="32" rx="9" fill="#05BDFB"/>
<path d="M16.4438 4C16.8462 4 17.1724 4.32624 17.1724 4.72865V6.6717C17.1724 7.07413 16.8462 7.40035 16.4438 7.40035C16.0413 7.40035 15.7151 7.07413 15.7151 6.6717V4.72865C15.7151 4.32624 16.0413 4 16.4438 4ZM23.3128 6.84627C23.4993 6.84627 23.6866 6.91651 23.8289 7.05879C24.1134 7.34333 24.1134 7.80653 23.8289 8.09104L22.4551 9.46484C22.1705 9.74941 21.7074 9.74938 21.4229 9.46484C21.1383 9.18028 21.1383 8.71716 21.4229 8.4326L22.7966 7.05879C22.9389 6.91651 23.1263 6.84627 23.3128 6.84627ZM9.57478 6.84627C9.76124 6.84627 9.9486 6.91651 10.0909 7.05879L11.4647 8.4326C11.7493 8.71716 11.7493 9.18028 11.4647 9.46484C11.1802 9.74938 10.717 9.74941 10.4324 9.46484L9.05865 8.09104C8.77412 7.80653 8.77412 7.34333 9.05865 7.05879C9.20093 6.91651 9.38827 6.84627 9.57478 6.84627ZM16.4438 8.37188C19.7826 8.37188 23.0016 10.97 23.0016 14.6489C23.0016 16.9394 22.0943 18.4237 21.2862 19.5672C20.4782 20.7107 19.8441 21.4854 19.8441 22.7019V25.6165C19.8441 26.5741 19.0483 27.3167 18.1439 27.3167H18.1211C18.0014 28.1341 17.291 28.774 16.4437 28.774C15.5965 28.774 14.886 28.1341 14.7663 27.3167H14.7435C13.8392 27.3167 13.0433 26.5741 13.0433 25.6165V22.7019C13.0433 21.4854 12.4093 20.7107 11.6012 19.5672C10.7931 18.4237 9.88586 16.9394 9.88586 14.6489C9.88596 10.97 13.1049 8.37188 16.4438 8.37188ZM16.4438 9.82917C13.8587 9.82917 11.3432 11.827 11.3432 14.6489C11.3432 16.5757 12.0147 17.6342 12.7854 18.7247C13.4424 19.6546 14.2233 20.6306 14.44 21.9733H18.4475C18.6643 20.6306 19.4451 19.6546 20.1022 18.7247C20.8728 17.6342 21.5443 16.5757 21.5443 14.6489C21.5443 11.827 19.0289 9.82917 16.4438 9.82917ZM17.5899 10.5578C17.6936 10.5541 17.8044 10.5681 17.9162 10.5958C19.4971 11.1919 20.6805 12.5842 20.9826 14.2845C21.0483 14.6621 20.7682 15.069 20.3906 15.1346C20.013 15.2002 19.606 14.9126 19.5405 14.535C19.3289 13.3438 18.5042 12.3707 17.4001 11.9544C17.0835 11.8367 16.8781 11.4748 16.9371 11.1422C17.0247 10.7344 17.2788 10.569 17.5899 10.5578ZM26.159 13.7153C26.5615 13.7153 26.8877 14.0415 26.8877 14.4439C26.8877 14.8463 26.5615 15.1726 26.159 15.1726H24.216C23.8136 15.1726 23.4873 14.8463 23.4873 14.4439C23.4873 14.0415 23.8136 13.7153 24.216 13.7153H26.159ZM8.67155 13.7153C9.07398 13.7153 9.40019 14.0415 9.40019 14.4439C9.40019 14.8464 9.07398 15.1726 8.67155 15.1726H6.72849C6.32608 15.1726 5.99985 14.8464 5.99985 14.4439C5.99985 14.0415 6.32608 13.7153 6.72849 13.7153H8.67155ZM18.3868 23.4306H14.5007V23.9163H18.3868V23.4306ZM18.3868 25.3736H14.5007V25.6165C14.5007 25.7753 14.6227 25.8594 14.7436 25.8594H18.1439C18.2648 25.8594 18.3868 25.7753 18.3868 25.6165V25.3736Z" fill="#05BDFB"/>
</svg>
