<svg width="23" height="21" viewBox="0 0 23 21" fill="none" xmlns="http://www.w3.org/2000/svg">
<path d="M16.3926 20.0951H5.81619C4.94091 20.0951 4.22852 19.3837 4.22852 18.5095V1.5845C4.22852 0.710806 4.94091 0 5.81619 0H16.3926C17.2668 0 17.9782 0.710806 17.9782 1.5845V18.5095C17.9782 19.3837 17.2668 20.0951 16.3926 20.0951ZM5.81619 1.05775C5.52373 1.05775 5.28626 1.29415 5.28626 1.5845V18.5095C5.28626 18.8009 5.52373 19.0373 5.81619 19.0373H16.3926C16.684 19.0373 16.9204 18.8009 16.9204 18.5095V1.5845C16.9204 1.29415 16.684 1.05775 16.3926 1.05775H5.81619Z" fill="white"/>
<path d="M2.64411 16.924C2.35164 16.924 2.11523 16.6876 2.11523 16.3951V3.70005C2.11523 3.40758 2.35164 3.17117 2.64411 3.17117C2.93658 3.17117 3.17298 3.40758 3.17298 3.70005V16.3951C3.17298 16.6876 2.93658 16.924 2.64411 16.924Z" fill="white"/>
<path d="M0.528873 14.8087C0.236406 14.8087 0 14.5723 0 14.2798V5.81571C0 5.52324 0.236406 5.28683 0.528873 5.28683C0.82134 5.28683 1.05775 5.52324 1.05775 5.81571V14.2798C1.05775 14.5723 0.82134 14.8087 0.528873 14.8087Z" fill="white"/>
<path d="M21.6773 14.8087C21.3848 14.8087 21.1484 14.5723 21.1484 14.2798V5.81571C21.1484 5.52324 21.3848 5.28683 21.6773 5.28683C21.9698 5.28683 22.2062 5.52324 22.2062 5.81571V14.2798C22.2062 14.5723 21.9698 14.8087 21.6773 14.8087Z" fill="white"/>
<path d="M19.565 16.924C19.2725 16.924 19.0361 16.6876 19.0361 16.3951V3.70005C19.0361 3.40758 19.2725 3.17117 19.565 3.17117C19.8575 3.17117 20.0939 3.40758 20.0939 3.70005V16.3951C20.0939 16.6876 19.8575 16.924 19.565 16.924Z" fill="white"/>
</svg>
