<svg width="32" height="32" viewBox="0 0 32 32" fill="none" xmlns="http://www.w3.org/2000/svg">
<rect opacity="0.1" width="32" height="32" rx="9" fill="#05BDFB"/>
<path d="M21.3926 26.0951H10.8162C9.94091 26.0951 9.22852 25.3837 9.22852 24.5095V7.5845C9.22852 6.71081 9.94091 6 10.8162 6H21.3926C22.2668 6 22.9782 6.71081 22.9782 7.5845V24.5095C22.9782 25.3837 22.2668 26.0951 21.3926 26.0951ZM10.8162 7.05775C10.5237 7.05775 10.2863 7.29415 10.2863 7.5845V24.5095C10.2863 24.8009 10.5237 25.0373 10.8162 25.0373H21.3926C21.684 25.0373 21.9204 24.8009 21.9204 24.5095V7.5845C21.9204 7.29415 21.684 7.05775 21.3926 7.05775H10.8162Z" fill="#05BDFB"/>
<path d="M7.64411 22.924C7.35164 22.924 7.11523 22.6876 7.11523 22.3951V9.70003C7.11523 9.40756 7.35164 9.17116 7.64411 9.17116C7.93658 9.17116 8.17298 9.40756 8.17298 9.70003V22.3951C8.17298 22.6876 7.93658 22.924 7.64411 22.924Z" fill="#05BDFB"/>
<path d="M5.52887 20.8087C5.23641 20.8087 5 20.5723 5 20.2798V11.8157C5 11.5232 5.23641 11.2868 5.52887 11.2868C5.82134 11.2868 6.05775 11.5232 6.05775 11.8157V20.2798C6.05775 20.5723 5.82134 20.8087 5.52887 20.8087Z" fill="#05BDFB"/>
<path d="M26.6773 20.8087C26.3848 20.8087 26.1484 20.5723 26.1484 20.2798V11.8157C26.1484 11.5232 26.3848 11.2868 26.6773 11.2868C26.9698 11.2868 27.2062 11.5232 27.2062 11.8157V20.2798C27.2062 20.5723 26.9698 20.8087 26.6773 20.8087Z" fill="#05BDFB"/>
<path d="M24.565 22.924C24.2725 22.924 24.0361 22.6876 24.0361 22.3951V9.70003C24.0361 9.40756 24.2725 9.17116 24.565 9.17116C24.8575 9.17116 25.0939 9.40756 25.0939 9.70003V22.3951C25.0939 22.6876 24.8575 22.924 24.565 22.924Z" fill="#05BDFB"/>
</svg>
